<?xml version="1.0" encoding="utf-8" ?><svg xmlns="http://www.w3.org/2000/svg" xmlns:xlink="http://www.w3.org/1999/xlink" width="4096" height="4096" viewBox="0 0 4096 4096"><path fill="#0AA558" d="M830.432 2786.52C828.608 2770.46 822.867 2770.39 822.977 2762.21L828.866 2757.29C1031.13 3032.36 1326.87 3185.63 1661.32 3234.7C1796.97 3254.6 1939.19 3258.5 2074.9 3240.16C2191.79 3224.13 2309.9 3172.59 2423.37 3147.83C2490.93 3133.1 2601.66 3173.1 2635 3233.53C2668.96 3295.1 2732.72 3352.38 2755.88 3414.59C2761.8 3375.28 2774.08 3359.91 2798.78 3329.47C2797.49 3321.35 2796.3 3313.62 2794.59 3305.56C2794.89 3301.84 2794.13 3303.46 2797.16 3300.83L2807.86 3304.28C2809.42 3312.03 2808.04 3311.82 2812.68 3316.22C2822.72 3316.68 2832.48 3308.58 2841.46 3304.8C2874.78 3290.76 3077.35 3293.1 3121.19 3297.7C3136.08 3299.27 3148.79 3302.24 3162.58 3308.14C3154.07 3219.01 3136.41 3174.82 3073.09 3110.75L3076.73 3109L3080.77 3113.11L3083.45 3112.82L3083.74 3113.03L3085.46 3110.12L3083.61 3108.88L3084.31 3105.1C3146.86 3139.34 3255.25 3221.89 3258.84 3300.56C3257.81 3331 3258.23 3339.02 3250.06 3368.34C3252.58 3375.46 3264.9 3407.63 3265.29 3412.65C3259.81 3409.39 3257.2 3408.18 3251.07 3405.91C3232.1 3398.93 3212.29 3394.46 3192.16 3392.62C3179.33 3391.48 3164.51 3391.38 3151.36 3391.7C3075.41 3393.54 2996.79 3387.55 2921.44 3395.61C2898.25 3398.09 2865.83 3413.91 2844.66 3423.63L2839.32 3421.29C2825.78 3427.78 2792.57 3454.12 2774.07 3465.28C2765.75 3446.47 2736.65 3378.23 2724.3 3363.9C2701.73 3337.74 2664.4 3284.73 2637.13 3264.18C2629.63 3258.53 2598.54 3249.38 2589.22 3246.43C2482.18 3212.52 2368.89 3263.69 2263.48 3295.36C2215.08 3309.82 2165.83 3321.25 2116.02 3329.59C1978.04 3351.5 1789.51 3342.35 1653.4 3318.01C1380.18 3269.16 1115.48 3133.49 933.207 2921.85C895.879 2878.51 862.988 2833.84 830.432 2786.52Z"/><path fill="#0AA558" d="M1243.08 2771.39C1164.56 2711.17 1080.96 2611.37 1028.96 2528.32C865.791 2267.69 819.272 1921.82 891.887 1623.98C964.996 1324.11 1148.14 1050.86 1413.64 887.656C1631.86 753.509 1898.06 707.476 2148.52 763.305C2255.82 787.223 2373.79 848.088 2432.99 944.019L2429.78 945.895C2419 931.886 2397.23 916.738 2382.4 906.973C2248.94 819.126 2084.03 806.86 1929.55 808.39C1715.75 809.111 1515.07 876.398 1344.98 1006.67C1103.8 1191.39 957.461 1470.39 918.626 1769.77C875.537 2101.94 969.387 2550.91 1246.21 2767.53L1243.08 2771.39Z"/><path fill="#0AA558" d="M850.751 2619.5C854.999 2613.44 848.229 2621.58 864.386 2618.31C895.58 2666.37 925.881 2711.56 962.773 2755.04C1224.23 3063.19 1645.06 3185.01 2037.89 3137.36C2223.18 3114.89 2428.62 2965.98 2605.05 3080.03C2637.74 3101.39 2666.35 3140.85 2687.9 3171.21L2685.09 3176.84C2605.9 3114.17 2467.91 3116.19 2376.46 3143.86C2318.74 3161.32 2261.28 3181.18 2203.08 3197.93C2149.53 3213.36 2094.79 3224.27 2039.41 3230.51C1878.94 3248.16 1692.53 3228.63 1538.24 3182.62C1243.5 3093.45 996.221 2890.91 850.751 2619.5Z"/><path fill="#0AA558" d="M943.523 2574.05L942.407 2572.41C917.624 2535.52 886.995 2475.14 868.657 2434.75C759.188 2191 728.116 1919.26 779.735 1657.09C843.847 1330.18 1038.17 1020.19 1316.25 834.179C1557.3 670.833 1853.25 609.623 2139.32 663.942C2252.49 686.371 2408.23 746.759 2473.76 844.914L2470.36 847.884C2452.98 825.002 2428.09 812.439 2403.63 798.111C2310.28 743.448 2204.84 711.763 2097.76 697.16C1808.56 656.941 1515.29 734.004 1283.23 911.194C1018.22 1117.01 846.308 1420.08 805.647 1753.15C769.433 2039.89 825.165 2330.72 964.814 2583.76C963.633 2583.79 962.451 2583.83 961.27 2583.86C957.539 2577.45 953.753 2571.08 949.912 2564.73L947.177 2565.78C947.407 2570.38 947.479 2569.82 946.918 2574.48L943.523 2574.05Z"/><path fill="#0AA558" d="M3137.58 1912.58C3153.87 1914.67 3162.17 1917.12 3177.37 1924.26L3176.19 1927.82L3186.22 1934.08C3190.6 1937.89 3196.01 1942.36 3200.18 1946.25C3203.71 1964.49 3205.19 1980.62 3205.94 1999.22L3188.73 1993.62L3186.3 1998.34C3177.09 1997.19 3167.87 1996.17 3158.63 1995.27L3160.92 1993.29C3159.34 1992.57 3141.31 1992.18 3137.38 1991.87C3076.7 2000.17 3011.67 2059.13 2975.96 2105.49C2886.31 2221.87 2886.69 2371.66 2849.82 2507.88C2827.9 2588.89 2783.75 2663.38 2766.42 2744.74C2757.71 2785.04 2756.16 2826.56 2761.84 2867.4C2770.96 2932.5 2811.99 3023.92 2863.85 3064.15L2861.33 3068.71C2767.69 3008.27 2699.02 2911.68 2688.54 2799.03C2674.72 2665.51 2740.37 2551.62 2772.9 2427.58C2794.26 2346.14 2798.83 2255.73 2828.23 2175.88C2845.92 2127.26 2871.88 2082.07 2904.97 2042.29C2958.53 1978 3035.43 1925.02 3120.54 1917.28L3122.31 1915.96C3129.2 1915.48 3131.34 1915.77 3137.58 1912.58Z"/><path fill="#E9F4DD" d="M3137.58 1912.58C3153.87 1914.67 3162.17 1917.12 3177.37 1924.26L3176.19 1927.82C3151.83 1918.34 3146.64 1918.28 3120.54 1917.28L3122.31 1915.96C3129.2 1915.48 3131.34 1915.77 3137.58 1912.58Z"/><path fill="#E9F4DD" d="M3137.38 1991.87C3155.53 1988.37 3170.87 1989.13 3188.73 1993.62L3186.3 1998.34C3177.09 1997.19 3167.87 1996.17 3158.63 1995.27L3160.92 1993.29C3159.34 1992.57 3141.31 1992.18 3137.38 1991.87Z"/><path fill="#0AA558" d="M3158.63 1995.27C3167.87 1996.17 3177.09 1997.19 3186.3 1998.34C3184.64 2017.99 3179.71 2042.66 3176.3 2062.48C3154.37 2076.39 3136.2 2087.83 3116.48 2104.75C3053.29 2158.99 3010.58 2247.46 2993.86 2328.16C2978.5 2402.31 2968.06 2479.09 2947.72 2552.71C2936.48 2593.42 2918.52 2632.23 2904.78 2672.14C2867.35 2780.78 2861.29 2884.1 2925.79 2983.85C2940.34 3006.37 2957.78 3030.25 2979.78 3046.17L2977.82 3050.83C2965.79 3043.67 2954.69 3036.89 2943.31 3028.7C2870.33 2976.95 2821 2898.24 2806.25 2810C2787.19 2691.25 2829.23 2617.98 2859.06 2509.92C2893.83 2379.58 2894.14 2233.08 2975.87 2119.78C3021.26 2056.86 3080.27 2007.75 3158.63 1995.27Z"/><path fill="#0AA558" d="M2146.18 3026.51C2301.36 2981.28 2450.75 2883.75 2614.53 2965.04C2648.29 2981.8 2702.19 3036.78 2716.36 3070.63L2716 3071.9C2666.53 3036.27 2624.07 3022.12 2565.34 3010.89C2457.88 2990.33 2360.91 3008.74 2254.56 3023.33C2229.55 3026.76 2202.01 3032.02 2177.12 3034.13C2174.7 3034.23 2172.28 3034.3 2169.86 3034.35C2156.7 3034.61 2155.4 3035.4 2146.18 3026.51Z"/><path fill="#40A572" d="M850.751 2619.5C832.974 2599.38 780.821 2474.8 770.328 2448.64C629.807 2104.49 631.616 1718.64 775.359 1375.83C914.281 1050.93 1172.44 777.572 1502.76 645.042C1780.97 533.415 2134.78 526.998 2405.93 664.576C2495.93 710.235 2575.99 780.913 2663.42 818.442C2638.24 817.785 2613.05 817.892 2587.88 818.762C2413.72 638.115 2237.77 581.597 1994.03 568.564C1387.05 536.11 871.832 988.757 717.453 1557.71C644.711 1832.49 657.855 2122.96 755.117 2390.05C783.972 2468.33 822.873 2546.04 864.386 2618.31C848.229 2621.58 854.999 2613.44 850.751 2619.5Z"/><path fill="#40A572" d="M943.523 2574.05L946.918 2574.48C947.479 2569.82 947.407 2570.38 947.177 2565.78L949.912 2564.73C953.753 2571.08 957.539 2577.45 961.27 2583.86C962.451 2583.83 963.633 2583.79 964.814 2583.76C994.74 2629.16 1017.27 2668.59 1052.55 2710.85C1302.09 3009.73 1776.16 3124.98 2146.18 3026.51C2155.4 3035.4 2156.7 3034.61 2169.86 3034.35C2172.28 3034.3 2174.7 3034.23 2177.12 3034.13C2142.1 3042.05 2104.55 3045.16 2068.95 3050.63C1641.56 3116.32 1171.34 2961.06 943.523 2574.05Z"/><path fill="#40A572" d="M1246.21 2767.53C1280.68 2794.45 1309.86 2816.38 1347.57 2838.8C1542.83 2954.9 1786.47 2996.99 2010.65 2969.64C2083.98 2960.4 2155.96 2942.52 2225.09 2916.37C2258.73 2903.87 2290.64 2886.38 2324.12 2874.52C2422.21 2839.77 2515.79 2836.97 2615.78 2863.85C2612.17 2842.02 2608.11 2819.57 2606.46 2797.54L2607.69 2800.69C2609.46 2805.31 2610.57 2809.37 2611.86 2814.11L2613.86 2814.44C2616.03 2809.13 2616.75 2806.83 2618.26 2801.28C2617.22 2827.99 2615.22 2845.82 2623.6 2871.52C2521 2840.81 2425.55 2844.04 2324.03 2880.15C2288.85 2894.15 2255.7 2911.58 2220.06 2924.63C1913.28 3036.96 1497.25 2986.46 1243.08 2771.39L1246.21 2767.53Z"/><defs><linearGradient id="gradient_0" gradientUnits="userSpaceOnUse" x1="3012.0613" y1="3152.7563" x2="2980.2417" y2="3184.9373"><stop offset="0" stop-color="#099A5A"/><stop offset="1" stop-color="#5BB482"/></linearGradient></defs><path fill="url(#gradient_0)" d="M2863.85 3064.15C2962.76 3133.44 3079.84 3185.25 3142.19 3290.38C3081.12 3238.34 3018.35 3188.16 2958.31 3134.58C2931.42 3110.57 2891.24 3089.73 2861.33 3068.71L2863.85 3064.15Z"/><path fill="#40A572" d="M2716.36 3070.63C2727.28 3077.3 2744.51 3093.31 2754.05 3100.17C2778.6 3117.83 2897.75 3212.65 2915.59 3217.92L2925.98 3221L2924.85 3223.36L2890.93 3227.83C2871.19 3209.9 2718.92 3077.28 2716 3071.9L2716.36 3070.63Z"/><path fill="#40A572" d="M2687.9 3171.21C2719.51 3206.79 2790.56 3264.9 2807.86 3304.28L2797.16 3300.83C2794.13 3303.46 2794.89 3301.84 2794.59 3305.56C2776.74 3263.9 2718.45 3212.18 2685.09 3176.84L2687.9 3171.21Z"/><path fill="#40A572" d="M2473.76 844.914C2489.03 867.991 2494.11 885.472 2495.33 913.25L2489.65 913.704C2489.28 885.925 2484.92 871.211 2470.36 847.884L2473.76 844.914Z"/><path fill="#74B098" d="M2915.59 3217.92C2925.17 3217.83 2933.1 3216.92 2942.03 3220.08C2936.34 3223.46 2932.04 3222.77 2924.85 3223.36L2925.98 3221L2915.59 3217.92Z"/><path fill="#40A572" d="M2602.8 681.712C2649.78 692.9 2808.56 850.269 2850.15 890.127C2827.61 876.475 2611.79 694.063 2602.8 681.712Z"/><path fill="#0AA558" d="M3001.17 1742.55C3074.34 1725.28 3141.99 1724.78 3208.14 1765.34C3215.85 1770.13 3223.34 1775.25 3230.6 1780.7L3232.83 1772.38C3281.92 1798.64 3311.73 1825.55 3348.5 1866.29C3351.53 1868.85 3354.91 1871.18 3356.93 1874.37L3412.26 1927.17C3415.54 1930.35 3435.94 1950.72 3438.31 1952.4C3443.37 1956.26 3445.51 1957.08 3449.01 1962.21C3476.58 1987.4 3501.79 2010.2 3526.55 2038.28C3529.48 2040.46 3537.3 2045.72 3538.86 2048.28C3565.57 2072.49 3591.69 2096.07 3616.93 2121.84C3622.86 2125.47 3625.14 2126.26 3628.99 2132.15C3634.12 2136.71 3639.34 2141.51 3644.64 2145.84C3668.36 2167.07 3689.71 2186.07 3706.68 2213.31C3782.83 2335.55 3743.72 2443.61 3617.85 2499.02C3588.02 2577.25 3555.62 2674.06 3531.57 2753.5L3529.79 2760.27C3494.92 2876.34 3434.47 3105.58 3485.87 3232.38C3489.32 3240.89 3508.99 3260.81 3516.96 3266.78C3519.97 3269.23 3522.94 3271.08 3524.89 3274.21C3542.97 3290.27 3583.4 3324.64 3597.54 3341.69L3602.72 3346.13C3607.48 3349.58 3614.13 3353.44 3616.67 3358.34C3631.94 3373.2 3658.79 3396.57 3671.71 3411.32C3677.55 3416.72 3683.29 3422.14 3688.81 3427.87C3693.03 3431.32 3699.92 3435.73 3702.56 3440.32C3775.15 3505.09 3840.54 3578.04 3845.83 3680.77C3847.6 3709.86 3840.89 3738.84 3826.5 3764.19L3821.8 3772.38C3814.28 3783.9 3806.33 3794.44 3797.14 3804.69L3793.69 3808.42C3779.46 3828.02 3760.87 3847.11 3742.08 3862.35C3725.7 3875.63 3709.2 3883.81 3688.08 3886.5C3643.13 3892.22 3593.98 3888.4 3548.46 3888.34C3447.75 3888.22 3346.74 3886.52 3246.07 3887.65C3232.15 3887.81 3218.4 3891.87 3204.85 3894.72C3179.49 3900.06 3157.23 3900.86 3131.39 3898.16C3048.59 3889.52 2956.32 3841.5 2903.68 3776.32C2891.62 3766.14 2877.46 3756.17 2867.34 3744.15C2782.32 3774.78 2704.48 3809.16 2617.15 3837.27C2394.86 3908.84 2161.34 3914.87 1929.95 3898.58C1692.66 3880.17 1462.4 3809.33 1255.79 3691.17C1119.22 3612.85 1049.54 3543.3 945.749 3426.45C877.536 3349.65 806.34 3274.3 738.509 3196.18C738.447 3191.18 736.255 3189.65 733.228 3185.91L733.305 3183.01L735.925 3181.44C755.231 3193.2 807.229 3259.94 831.656 3267.43C863.803 3296.24 901.904 3331.42 937.95 3355.37C1281.89 3583.9 1700.71 3670.27 2109.25 3651.13C2228.71 3645.53 2316.8 3624.08 2430.39 3594.58L2436.22 3592.9C2489.23 3578.48 2540.97 3557.26 2594.14 3544.23C2613.52 3539.48 2632.61 3538.66 2652.08 3535.36L2655.72 3534.73C2729.99 3597.21 2795.59 3619.26 2885.72 3646.07C2884.12 3643.44 2882.61 3640.75 2881.2 3638.02C2873.08 3622.18 2859.47 3577.08 2865.17 3560.22C2883.48 3555.81 2893.8 3547.01 2909.59 3537.76C2928.42 3526.73 2948.06 3518 2969.42 3513.21C3008 3504.56 3070.44 3509.07 3111.03 3509.04L3354.42 3508.5C3354.02 3463.23 3347.54 3424.76 3331.82 3382.33L3333.51 3377.68C3341.79 3378.15 3348.86 3380.57 3356.67 3383.13L3357.89 3377.98C3404.49 3244.85 3310.09 3150.74 3204.04 3086.95C3195.48 3086.87 3196.12 3085.38 3191.48 3089.62L3190.71 3099.44C3248.66 3157.86 3284.39 3251.82 3263.43 3333.56C3257.5 3322.8 3264.44 3309.14 3258.84 3300.56C3255.25 3221.89 3146.86 3139.34 3084.31 3105.1L3083.61 3108.88L3085.46 3110.12L3083.74 3113.03L3083.45 3112.82L3080.77 3113.11L3076.73 3109L3073.09 3110.75C3065.75 3106.34 3055.36 3096.35 3045.15 3090.27C3022.67 3076.9 2999.98 3064.65 2977.82 3050.83L2979.78 3046.17C2957.78 3030.25 2940.34 3006.37 2925.79 2983.85C2861.29 2884.1 2867.35 2780.78 2904.78 2672.14C2918.52 2632.23 2936.48 2593.42 2947.72 2552.71C2968.06 2479.09 2978.5 2402.31 2993.86 2328.16C3010.58 2247.46 3053.29 2158.99 3116.48 2104.75C3136.2 2087.83 3154.37 2076.39 3176.3 2062.48C3179.71 2042.66 3184.64 2017.99 3186.3 1998.34L3188.73 1993.62L3205.94 1999.22C3205.19 1980.62 3203.71 1964.49 3200.18 1946.25C3196.01 1942.36 3190.6 1937.89 3186.22 1934.08L3187.67 1931.09C3165.95 1883.95 3158.61 1820.74 3105.72 1785.71L3102.98 1778.95C3072.67 1756.13 3037.58 1748.82 3001.17 1742.55Z"/><path fill="#0AA558" d="M3001.17 1742.55C3074.34 1725.28 3141.99 1724.78 3208.14 1765.34C3215.85 1770.13 3223.34 1775.25 3230.6 1780.7L3232.83 1772.38C3281.92 1798.64 3311.73 1825.55 3348.5 1866.29L3349.83 1869.18C3356.71 1883.97 3367.9 1900.27 3375.34 1916.18C3398.94 1966.7 3417.32 2022.98 3403.88 2078.66C3401.81 2100.82 3387.28 2146.48 3366.04 2155.95L3361.73 2152.84C3358.51 2157.85 3364.56 2166.74 3360.62 2170C3343.71 2184 3316.82 2192.26 3301.13 2207.6C3222.19 2284.81 3188.1 2389.97 3170.77 2496.38C3166.09 2525.08 3159.09 2552.39 3154.57 2580.38L3153.35 2582.66C3121.57 2723.32 3034.1 2908.24 3188.58 3008.98C3197.78 3014.36 3219.96 3028.54 3229.07 3029.63L3228.96 3034.83C3339.66 3092.23 3407.81 3235.96 3370.44 3356.24C3368.15 3363.62 3368.39 3377.35 3364.77 3382.94C3360.9 3383.27 3360.52 3383.43 3356.67 3383.13L3357.89 3377.98C3404.49 3244.85 3310.09 3150.74 3204.04 3086.95C3195.48 3086.87 3196.12 3085.38 3191.48 3089.62L3190.71 3099.44C3248.66 3157.86 3284.39 3251.82 3263.43 3333.56C3257.5 3322.8 3264.44 3309.14 3258.84 3300.56C3255.25 3221.89 3146.86 3139.34 3084.31 3105.1L3083.61 3108.88L3085.46 3110.12L3083.74 3113.03L3083.45 3112.82L3080.77 3113.11L3076.73 3109L3073.09 3110.75C3065.75 3106.34 3055.36 3096.35 3045.15 3090.27C3022.67 3076.9 2999.98 3064.65 2977.82 3050.83L2979.78 3046.17C2957.78 3030.25 2940.34 3006.37 2925.79 2983.85C2861.29 2884.1 2867.35 2780.78 2904.78 2672.14C2918.52 2632.23 2936.48 2593.42 2947.72 2552.71C2968.06 2479.09 2978.5 2402.31 2993.86 2328.16C3010.58 2247.46 3053.29 2158.99 3116.48 2104.75C3136.2 2087.83 3154.37 2076.39 3176.3 2062.48C3179.71 2042.66 3184.64 2017.99 3186.3 1998.34L3188.73 1993.62L3205.94 1999.22C3205.19 1980.62 3203.71 1964.49 3200.18 1946.25C3196.01 1942.36 3190.6 1937.89 3186.22 1934.08L3187.67 1931.09C3165.95 1883.95 3158.61 1820.74 3105.72 1785.71L3102.98 1778.95C3072.67 1756.13 3037.58 1748.82 3001.17 1742.55Z"/><defs><linearGradient id="gradient_1" gradientUnits="userSpaceOnUse" x1="3536.0613" y1="2384.4448" x2="2899.1746" y2="2954.7766"><stop offset="0" stop-color="#F7FCEA"/><stop offset="1" stop-color="white"/></linearGradient></defs><path fill="url(#gradient_1)" d="M3188.73 1993.62L3205.94 1999.22L3203.88 2003.79L3196.88 2001.94C3187.92 2008 3183.38 2052.34 3180.74 2064.79C3157.27 2082.89 3135.02 2094.98 3113.11 2115.72C2999.53 2220.69 2995.03 2373.66 2964.23 2514.43C2951.02 2574.82 2926.96 2631.04 2918.48 2692.87C2898.69 2837.11 2951.54 2950.76 3075.69 3025.16C3127.44 3058.76 3143.65 3053.14 3190.71 3099.44C3248.66 3157.86 3284.39 3251.82 3263.43 3333.56C3257.5 3322.8 3264.44 3309.14 3258.84 3300.56C3255.25 3221.89 3146.86 3139.34 3084.31 3105.1L3083.61 3108.88L3085.46 3110.12L3083.74 3113.03L3083.45 3112.82L3080.77 3113.11L3076.73 3109L3073.09 3110.75C3065.75 3106.34 3055.36 3096.35 3045.15 3090.27C3022.67 3076.9 2999.98 3064.65 2977.82 3050.83L2979.78 3046.17C2957.78 3030.25 2940.34 3006.37 2925.79 2983.85C2861.29 2884.1 2867.35 2780.78 2904.78 2672.14C2918.52 2632.23 2936.48 2593.42 2947.72 2552.71C2968.06 2479.09 2978.5 2402.31 2993.86 2328.16C3010.58 2247.46 3053.29 2158.99 3116.48 2104.75C3136.2 2087.83 3154.37 2076.39 3176.3 2062.48C3179.71 2042.66 3184.64 2017.99 3186.3 1998.34L3188.73 1993.62Z"/><path fill="#40A572" d="M2979.78 3046.17C3000.86 3059.95 3074.37 3096.91 3084.31 3105.1L3083.61 3108.88L3085.46 3110.12L3083.74 3113.03L3083.45 3112.82L3080.77 3113.11L3076.73 3109L3073.09 3110.75C3065.75 3106.34 3055.36 3096.35 3045.15 3090.27C3022.67 3076.9 2999.98 3064.65 2977.82 3050.83L2979.78 3046.17Z"/><path fill="#40A572" d="M3077.71 3020.07C3117.51 3046.93 3161.91 3064.41 3204.04 3086.95C3195.48 3086.87 3196.12 3085.38 3191.48 3089.62L3190.71 3099.44C3143.65 3053.14 3127.44 3058.76 3075.69 3025.16L3077.71 3020.07Z"/><path fill="#40A572" d="M3188.58 3008.98C3197.78 3014.36 3219.96 3028.54 3229.07 3029.63L3228.96 3034.83C3212.81 3027.69 3202.83 3022.96 3187.62 3014.17L3188.58 3008.98Z"/><path fill="#0AA558" d="M3232.83 1772.38C3281.92 1798.64 3311.73 1825.55 3348.5 1866.29L3349.83 1869.18C3356.71 1883.97 3367.9 1900.27 3375.34 1916.18C3398.94 1966.7 3417.32 2022.98 3403.88 2078.66C3402.74 2069.78 3405.7 2064.32 3401.83 2059.54C3385.85 2049.27 3345.95 2003.02 3331.95 1986.69L3329.04 1985.65C3325.09 1974.84 3327.66 1965.14 3324.61 1952.61C3324.48 1965.41 3324.69 1983.61 3323.3 1996.52C3323.07 1998.73 3315.88 2005.84 3313.64 2008.8C3322.56 1923.3 3295.57 1839.18 3230.6 1780.7L3232.83 1772.38Z"/><path fill="#40A572" d="M3331.95 1986.69C3341.57 1988.38 3396.94 2049.27 3401.83 2059.54C3385.85 2049.27 3345.95 2003.02 3331.95 1986.69Z"/><path fill="#E9F4DD" d="M3068.66 2482.46C3093.21 2346.69 3120.67 2213.81 3242.74 2127.39C3256.49 2117.66 3262.21 2113.73 3279.11 2113.85L3281.49 2116.01C3277.35 2117.95 3274.59 2117.37 3272.74 2118.17C3134.46 2177.74 3093.34 2367.12 3072.97 2490.71L3068.66 2482.46Z"/><path fill="#FBFDF6" d="M3187.67 1931.09C3193.26 1933.99 3199.67 1937.13 3205.03 1940.28C3207.75 1953.69 3216.55 1994.79 3211.24 2006.3C3206.69 2005.39 3208.1 2005.92 3203.88 2003.79L3205.94 1999.22C3205.19 1980.62 3203.71 1964.49 3200.18 1946.25C3196.01 1942.36 3190.6 1937.89 3186.22 1934.08L3187.67 1931.09Z"/><path fill="#40A572" d="M3153.35 2582.66C3142.76 2576.38 3084.55 2570.29 3071.09 2564.25L3071.26 2562.32C3084.89 2562.68 3142.26 2574.81 3154.57 2580.38L3153.35 2582.66Z"/><path fill="#40A572" d="M3057 2606.83C3075.22 2603.69 3119.8 2616.92 3140.13 2621.39C3121.08 2624.88 3075.15 2615.51 3057 2606.83Z"/><path fill="#0AA558" d="M3488.64 2192.54C3512.15 2126.03 3500.15 2060.71 3469.13 1999.09C3464.33 1989.56 3450.23 1969.45 3449.01 1962.21C3476.58 1987.4 3501.79 2010.2 3526.55 2038.28C3529.48 2040.46 3537.3 2045.72 3538.86 2048.28C3565.57 2072.49 3591.69 2096.07 3616.93 2121.84C3637.94 2159.95 3656.51 2189.37 3658.12 2233.6C3660.24 2246.96 3660.83 2261.73 3658.6 2275.11C3657.84 2298.14 3656.63 2306.59 3649.27 2328.46L3647.6 2333.71C3641.48 2346.6 3637.52 2354.45 3628.89 2366L3623.96 2372.46L3622.09 2374.39C3600.83 2395.98 3583.97 2402.45 3558.85 2416.59C3517.66 2439.79 3497.15 2511.35 3483.41 2554.45L3481.41 2559.96C3477.7 2571.96 3473.61 2584.52 3470.32 2596.59L3469.06 2598.44C3466.31 2607.74 3459.97 2627.37 3458.52 2636.06L3457.13 2639.03C3454.18 2649.28 3448.32 2667.7 3446.47 2677.51L3444.84 2681.3L3435.54 2715.81L3434.56 2718.21C3404.5 2709.28 3374.93 2698.78 3345.97 2686.75L3340.51 2710.4L3339.29 2718.8C3314.91 2814.84 3287.45 2913.69 3307.55 3013.3C3312.19 3036.33 3319.15 3061.77 3333.31 3080.9L3329.39 3082.66C3270.48 3002.8 3300.48 2846.11 3323.43 2755.6L3325.42 2748.1C3328.04 2738.63 3330.6 2726.34 3332.9 2716.59C3326.54 2711.62 3251.39 2685.31 3243.21 2687.04C3270.88 2560.52 3290.36 2388.57 3378.41 2292.97C3422.44 2245.17 3448.41 2266.6 3486.38 2198.32L3488.64 2192.54Z"/><path fill="#0AA558" d="M3570.53 2268.11C3587.02 2286.16 3640.86 2323.78 3647.6 2333.71C3641.48 2346.6 3637.52 2354.45 3628.89 2366L3623.96 2372.46L3622.09 2374.39C3600.83 2395.98 3583.97 2402.45 3558.85 2416.59C3517.66 2439.79 3497.15 2511.35 3483.41 2554.45L3481.41 2559.96C3477.7 2571.96 3473.61 2584.52 3470.32 2596.59L3469.06 2598.44C3466.31 2607.74 3459.97 2627.37 3458.52 2636.06L3457.13 2639.03C3454.18 2649.28 3448.32 2667.7 3446.47 2677.51L3444.84 2681.3L3435.54 2715.81L3434.56 2718.21C3404.5 2709.28 3374.93 2698.78 3345.97 2686.75L3346.68 2681.73L3354.38 2648.67L3356.53 2640.32L3363.21 2612.62L3364.63 2606.31C3366.48 2596.45 3369.66 2584.3 3372 2574.34L3372.5 2571.92C3378.46 2548.35 3385.41 2525.26 3392.26 2501.94L3394.52 2496.41C3409.48 2452.13 3438.57 2377.57 3477.84 2349.67C3525.7 2315.65 3539.07 2328.07 3570.53 2268.11Z"/><path fill="#0AA558" d="M3356.53 2640.32L3363.21 2612.62C3393.86 2623.05 3432.56 2630.19 3457.13 2639.03C3454.18 2649.28 3448.32 2667.7 3446.47 2677.51L3444.84 2681.3L3435.54 2715.81L3434.56 2718.21C3404.5 2709.28 3374.93 2698.78 3345.97 2686.75L3346.68 2681.73L3354.38 2648.67L3356.53 2640.32Z"/><path fill="#0AA558" d="M3354.38 2648.67C3384.78 2661.07 3415.45 2669.63 3444.84 2681.3L3435.54 2715.81L3434.56 2718.21C3404.5 2709.28 3374.93 2698.78 3345.97 2686.75L3346.68 2681.73L3354.38 2648.67Z"/><path fill="#40A572" d="M3346.68 2681.73C3358.31 2691.02 3418.35 2708.94 3435.54 2715.81L3434.56 2718.21C3404.5 2709.28 3374.93 2698.78 3345.97 2686.75L3346.68 2681.73Z"/><path fill="#40A572" d="M3354.38 2648.67L3356.53 2640.32C3362.88 2655.15 3428.8 2669.05 3446.47 2677.51L3444.84 2681.3C3415.45 2669.63 3384.78 2661.07 3354.38 2648.67Z"/><path fill="#0AA558" d="M3372 2574.34C3395.35 2582.42 3443.81 2594.58 3469.06 2598.44C3466.31 2607.74 3459.97 2627.37 3458.52 2636.06L3457.13 2639.03C3432.56 2630.19 3393.86 2623.05 3363.21 2612.62L3364.63 2606.31C3366.48 2596.45 3369.66 2584.3 3372 2574.34Z"/><path fill="#40A572" d="M3363.21 2612.62L3364.63 2606.31C3372.43 2618.06 3438.42 2627.8 3458.52 2636.06L3457.13 2639.03C3432.56 2630.19 3393.86 2623.05 3363.21 2612.62Z"/><path fill="#40A572" d="M3372.5 2571.92C3392.55 2576.91 3459.27 2589.04 3470.32 2596.59L3469.06 2598.44C3443.81 2594.58 3395.35 2582.42 3372 2574.34L3372.5 2571.92Z"/><path fill="#40A572" d="M3481.41 2559.96C3478.36 2556.61 3402.08 2545.26 3387.43 2539.36C3392.5 2538.17 3474.22 2551.82 3483.41 2554.45L3481.41 2559.96Z"/><path fill="#40A572" d="M3394.52 2496.41L3397.17 2500.76C3429.77 2506.52 3459.91 2508.25 3492.7 2510.7C3482.58 2517.96 3405.95 2508.12 3392.26 2501.94L3394.52 2496.41Z"/><path fill="#40A572" d="M3623.96 2372.46C3618.8 2354.65 3562.69 2326.52 3558.11 2309.31C3566.27 2312.58 3613.56 2355.12 3625.84 2363.86L3628.89 2366L3623.96 2372.46Z"/><path fill="#0AA558" d="M3488.64 2192.54C3512.15 2126.03 3500.15 2060.71 3469.13 1999.09C3464.33 1989.56 3450.23 1969.45 3449.01 1962.21C3476.58 1987.4 3501.79 2010.2 3526.55 2038.28C3564.05 2096.63 3580 2133.11 3577.9 2203.93L3577.66 2209.7C3576.7 2229.99 3574.03 2240.94 3566.73 2259.8L3564.81 2264.14C3540.73 2241.64 3512.16 2219.28 3486.38 2198.32L3488.64 2192.54Z"/><path fill="#40A572" d="M3488.64 2192.54C3490.32 2197 3557.87 2253.22 3566.73 2259.8L3564.81 2264.14C3540.73 2241.64 3512.16 2219.28 3486.38 2198.32L3488.64 2192.54Z"/><path fill="#40A572" d="M3577.66 2209.7C3566.78 2197.71 3513.58 2157.74 3511.38 2153.09C3528.38 2158.9 3564.11 2190.57 3577.9 2203.93L3577.66 2209.7Z"/><path fill="#0AA558" d="M3576.71 2133.57C3571.16 2122.37 3563.8 2091.86 3556.67 2078.55C3551.22 2068.38 3539.07 2056.55 3538.86 2048.28C3565.57 2072.49 3591.69 2096.07 3616.93 2121.84C3637.94 2159.95 3656.51 2189.37 3658.12 2233.6C3660.24 2246.96 3660.83 2261.73 3658.6 2275.11C3657.84 2298.14 3656.63 2306.59 3649.27 2328.46L3647.6 2333.71C3640.86 2323.78 3587.02 2286.16 3570.53 2268.11L3572.42 2262.05C3587.39 2220.36 3584.59 2193.18 3581.18 2149.51C3580.71 2148.49 3577.22 2135.42 3576.71 2133.57Z"/><path fill="#40A572" d="M3658.6 2275.11C3636.47 2254.35 3610.31 2239.51 3590.01 2218.56L3590.22 2216.96C3598.83 2221.41 3648.88 2260.46 3657.01 2267.94C3657.03 2255.73 3657.3 2245.78 3658.12 2233.6C3660.24 2246.96 3660.83 2261.73 3658.6 2275.11Z"/><path fill="#40A572" d="M3572.42 2262.05C3577.73 2273.83 3635.49 2317.11 3649.27 2328.46L3647.6 2333.71C3640.86 2323.78 3587.02 2286.16 3570.53 2268.11L3572.42 2262.05Z"/><path fill="#40A572" d="M3576.71 2133.57C3589.43 2146.82 3627.96 2172.79 3633.6 2180.61L3632.66 2182.38C3615.16 2176.41 3590.97 2146.2 3582.27 2147.58L3581.18 2149.51C3580.71 2148.49 3577.22 2135.42 3576.71 2133.57Z"/><path fill="#E9F4DD" d="M3526.55 2038.28C3529.48 2040.46 3537.3 2045.72 3538.86 2048.28C3539.07 2056.55 3551.22 2068.38 3556.67 2078.55C3563.8 2091.86 3571.16 2122.37 3576.71 2133.57C3577.22 2135.42 3580.71 2148.49 3581.18 2149.51C3584.59 2193.18 3587.39 2220.36 3572.42 2262.05L3570.53 2268.11C3539.07 2328.07 3525.7 2315.65 3477.84 2349.67C3438.57 2377.57 3409.48 2452.13 3394.52 2496.41L3392.26 2501.94C3385.41 2525.26 3378.46 2548.35 3372.5 2571.92L3372 2574.34C3369.66 2584.3 3366.48 2596.45 3364.63 2606.31L3363.21 2612.62L3356.53 2640.32L3354.38 2648.67L3346.68 2681.73L3345.97 2686.75L3340.51 2710.4L3339.29 2718.8C3314.91 2814.84 3287.45 2913.69 3307.55 3013.3C3312.19 3036.33 3319.15 3061.77 3333.31 3080.9L3329.39 3082.66C3270.48 3002.8 3300.48 2846.11 3323.43 2755.6L3325.42 2748.1C3328.04 2738.63 3330.6 2726.34 3332.9 2716.59L3339.27 2689.14L3341.37 2677.69C3346.97 2655.6 3352.09 2632.31 3357.32 2610.04L3358.68 2607.47C3368.17 2540.8 3415.97 2395.12 3465.69 2351.24C3504.06 2317.37 3539.87 2324.51 3564.81 2264.14L3566.73 2259.8C3574.03 2240.94 3576.7 2229.99 3577.66 2209.7L3577.9 2203.93C3580 2133.11 3564.05 2096.63 3526.55 2038.28Z"/><path fill="#40A572" d="M3339.27 2689.14C3339.09 2688.07 3338.37 2683.25 3337.93 2682.85C3322.26 2668.83 3278.62 2659.97 3259.28 2649.18L3260.45 2648.35C3274.92 2651.11 3324.99 2670.97 3341.37 2677.69L3339.27 2689.14Z"/><path fill="#40A572" d="M3357.32 2610.04C3344.95 2602.4 3287.81 2585.64 3280.12 2578.41L3280.54 2578.02L3281.77 2579.54L3282.79 2578.53C3298.53 2583.12 3344.59 2600.06 3358.68 2607.47L3357.32 2610.04Z"/><path fill="#40A572" d="M3286.43 2505.87C3303.21 2507.89 3353.17 2525.68 3366.92 2535.37C3342.85 2531.44 3307.1 2518.57 3286.43 2505.87Z"/><path fill="#0AA558" d="M2903.68 3776.32L2905.1 3776.17C2910.46 3778.99 2916 3776.78 2921.74 3779.12C2947.15 3789.49 2970.14 3804.14 2996.41 3813.09C3022.93 3822.41 3050.81 3827.29 3078.92 3827.54C3115.74 3827.68 3146.64 3810.55 3182.36 3808.42C3215.02 3806.46 3248.53 3807.91 3281.26 3807.92L3464.69 3807.9C3487.26 3807.88 3617.99 3809.9 3629.1 3804.38L3631.71 3795.63L3633.79 3795.01C3637.01 3798.47 3639.79 3801.27 3643.72 3803.96C3677.17 3796.25 3713.19 3753.96 3729.7 3724.97C3737.83 3710.69 3742.34 3690.86 3756.06 3681.28C3756.62 3680.9 3757.18 3680.53 3757.74 3680.15C3773.08 3713.48 3793.85 3740.82 3820.39 3766.29L3821.8 3772.38C3814.28 3783.9 3806.33 3794.44 3797.14 3804.69L3793.69 3808.42C3779.46 3828.02 3760.87 3847.11 3742.08 3862.35C3725.7 3875.63 3709.2 3883.81 3688.08 3886.5C3643.13 3892.22 3593.98 3888.4 3548.46 3888.34C3447.75 3888.22 3346.74 3886.52 3246.07 3887.65C3232.15 3887.81 3218.4 3891.87 3204.85 3894.72C3179.49 3900.06 3157.23 3900.86 3131.39 3898.16C3048.59 3889.52 2956.32 3841.5 2903.68 3776.32Z"/><path fill="#40A572" d="M3793.69 3808.42C3787.34 3791.43 3756.92 3776.96 3747.64 3759.18L3749.51 3758.61C3766.41 3769.77 3784.33 3788.93 3797.14 3804.69L3793.69 3808.42Z"/><path fill="#40A572" d="M3691.42 3777.35C3702.94 3780.3 3709.44 3783.98 3715.65 3794.28C3706.65 3790.55 3699.02 3783.36 3691.42 3777.35Z"/><path fill="#0AA558" d="M3636.32 2148.67L3644.64 2145.84C3668.36 2167.07 3689.71 2186.07 3706.68 2213.31C3782.83 2335.55 3743.72 2443.61 3617.85 2499.02C3588.02 2577.25 3555.62 2674.06 3531.57 2753.5C3520.04 2738.52 3457.8 2729.1 3440.68 2718.44C3454.2 2659.06 3505.03 2482.95 3538.95 2441.19C3549.74 2427.91 3564.1 2420.51 3578.82 2412.49C3614.88 2392.81 3641.69 2369.49 3655.4 2329.52C3676.47 2268.06 3664.48 2205.12 3636.32 2148.67Z"/><path fill="#0AA558" d="M3345.97 2686.75C3374.93 2698.78 3404.5 2709.28 3434.56 2718.21C3431.49 2730.64 3428.59 2742.97 3424.81 2755.21L3423.29 2763.49C3402.04 2855.1 3374.4 2953.74 3380.45 3048.34C3382.42 3079.27 3388.77 3108.4 3395.21 3138.55C3394.57 3139.59 3395.16 3138.85 3392.4 3141.08C3373.49 3128.66 3348.48 3098.92 3333.31 3080.9C3319.15 3061.77 3312.19 3036.33 3307.55 3013.3C3287.45 2913.69 3314.91 2814.84 3339.29 2718.8L3340.51 2710.4L3345.97 2686.75Z"/><path fill="#0AA558" d="M3345.97 2686.75C3374.93 2698.78 3404.5 2709.28 3434.56 2718.21C3431.49 2730.64 3428.59 2742.97 3424.81 2755.21L3423.29 2763.49L3422.18 2759.68C3418.17 2754.76 3350.24 2724.42 3339.29 2718.8L3340.51 2710.4L3345.97 2686.75Z"/><path fill="#40A572" d="M3340.51 2710.4C3341.41 2712.38 3342.32 2714.37 3343.23 2716.35C3363.14 2729.23 3406.11 2744.57 3424.81 2755.21L3423.29 2763.49L3422.18 2759.68C3418.17 2754.76 3350.24 2724.42 3339.29 2718.8L3340.51 2710.4Z"/><path fill="#0AA558" d="M3761.59 3672.26C3771.86 3602.4 3760.19 3535.32 3723.05 3474.38C3717.41 3465.13 3703.41 3450.59 3702.56 3440.32C3775.15 3505.09 3840.54 3578.04 3845.83 3680.77C3847.6 3709.86 3840.89 3738.84 3826.5 3764.19L3821.8 3772.38L3820.39 3766.29C3793.85 3740.82 3773.08 3713.48 3757.74 3680.15C3760.53 3678.59 3760.62 3675.22 3761.59 3672.26Z"/><path fill="#40A572" d="M3757.74 3680.15C3760.53 3678.59 3760.62 3675.22 3761.59 3672.26C3763.55 3701.39 3799.96 3741.83 3820.71 3760.77C3822.61 3762.51 3824.08 3763.39 3826.5 3764.19L3821.8 3772.38L3820.39 3766.29C3793.85 3740.82 3773.08 3713.48 3757.74 3680.15Z"/><path fill="#E9F4DD" d="M3616.93 2121.84C3622.86 2125.47 3625.14 2126.26 3628.99 2132.15C3634.12 2136.71 3639.34 2141.51 3644.64 2145.84L3636.32 2148.67C3664.48 2205.12 3676.47 2268.06 3655.4 2329.52C3641.69 2369.49 3614.88 2392.81 3578.82 2412.49C3564.1 2420.51 3549.74 2427.91 3538.95 2441.19C3505.03 2482.95 3454.2 2659.06 3440.68 2718.44L3439.34 2722.9C3429.41 2761.15 3420.26 2799.61 3411.89 2838.24C3391.88 2927.02 3374.28 3013.9 3392.76 3104.95C3394.96 3115.76 3401.03 3150.24 3406.84 3157.86C3453.79 3219.41 3489.7 3295.19 3487.08 3374.16C3486.71 3385.56 3487.08 3412.77 3482.65 3423.41C3470.96 3425.62 3479.51 3419.77 3472.95 3421.44C3464.01 3423.7 3445.02 3436.57 3437.5 3441.29C3444.6 3471.95 3452.05 3533.15 3447.88 3564.46C3459.84 3584.67 3461.93 3589.19 3468.67 3612.07C3373.41 3613.68 3278.13 3614.16 3182.86 3613.5C3157.18 3613.46 3131.71 3613.18 3105.73 3613.37C3069.51 3613.64 3033.1 3609.84 2999.13 3625.95C2992.11 3629.28 2966.84 3653.75 2957.42 3657.46C2956.15 3656.64 2954.88 3655.82 2953.61 3655.01C2952.19 3642.04 3015.1 3610.87 3027.35 3604.69C3060.35 3609.55 3151.39 3607.23 3188.03 3607.18C3279.33 3607.67 3370.64 3607.35 3461.94 3606.21L3460.95 3602.95C3454.22 3581.02 3441.64 3561.62 3430.17 3541.61L3432.36 3540.53L3440.71 3546.98C3447.67 3519.61 3437.67 3466.17 3431.02 3438.8C3447.09 3429.12 3461.86 3420.06 3478.68 3411.61C3490.25 3307.6 3461.09 3235.27 3398.01 3151.39C3396.85 3149.85 3396.8 3149.88 3395.49 3148.52C3396.68 3143.27 3396.95 3143.56 3395.21 3138.55C3388.77 3108.4 3382.42 3079.27 3380.45 3048.34C3374.4 2953.74 3402.04 2855.1 3423.29 2763.49L3424.81 2755.21C3428.59 2742.97 3431.49 2730.64 3434.56 2718.21L3435.54 2715.81L3444.84 2681.3L3446.47 2677.51C3448.32 2667.7 3454.18 2649.28 3457.13 2639.03L3458.52 2636.06C3459.97 2627.37 3466.31 2607.74 3469.06 2598.44L3470.32 2596.59C3473.61 2584.52 3477.7 2571.96 3481.41 2559.96L3483.41 2554.45C3497.15 2511.35 3517.66 2439.79 3558.85 2416.59C3583.97 2402.45 3600.83 2395.98 3622.09 2374.39L3623.96 2372.46L3628.89 2366C3637.52 2354.45 3641.48 2346.6 3647.6 2333.71L3649.27 2328.46C3656.63 2306.59 3657.84 2298.14 3658.6 2275.11C3660.83 2261.73 3660.24 2246.96 3658.12 2233.6C3656.51 2189.37 3637.94 2159.95 3616.93 2121.84Z"/><path fill="#40A572" d="M3636.32 2148.67C3631.99 2143.18 3629.08 2139.17 3628.99 2132.15C3634.12 2136.71 3639.34 2141.51 3644.64 2145.84L3636.32 2148.67Z"/><path fill="#FBFDF6" d="M3154.57 2580.38C3159.09 2552.39 3166.09 2525.08 3170.77 2496.38C3188.1 2389.97 3222.19 2284.81 3301.13 2207.6C3316.82 2192.26 3343.71 2184 3360.62 2170C3364.56 2166.74 3358.51 2157.85 3361.73 2152.84L3366.04 2155.95L3371.1 2162.64C3363.81 2181.46 3325.78 2193.16 3307.13 2210.4C3197.21 2312.04 3190.46 2447.23 3160.09 2580.52C3118.92 2761.2 3073.94 2882.95 3229.07 3029.63C3219.96 3028.54 3197.78 3014.36 3188.58 3008.98C3034.1 2908.24 3121.57 2723.32 3153.35 2582.66L3154.57 2580.38Z"/><path fill="#E9F4DD" d="M2655.99 3630.43C2553.67 3663.41 2449.94 3699.46 2344.04 3718.97C2236.7 3738.74 2131.98 3742.81 2023.17 3742.36C1969.77 3742.14 1916.29 3742.3 1862.99 3738.72C1623.87 3723.45 1390.3 3660.04 1176.28 3552.3C1088.51 3507.28 1001.43 3454.7 925.81 3391.16C914.365 3381.54 901.871 3372.44 891.456 3361.74C914.542 3373.88 941.792 3402.37 964.852 3418.68C1032.21 3466.34 1100.11 3509.4 1173.7 3546.84C1375.57 3648.42 1594.92 3710.68 1820.05 3730.3C1888.31 3736.16 1956.7 3736.85 2025.17 3737.34C2171.19 3738.37 2320.41 3727.72 2460.56 3683.78C2462.59 3683.15 2464.61 3682.5 2466.63 3681.84L2470.54 3681.27C2484.07 3677.43 2497.5 3673.27 2510.83 3668.78L2516.23 3667.6C2563.35 3654.5 2670.19 3611.99 2710.88 3611.15C2718.16 3611 2725.43 3614.64 2732 3617.44L2731.96 3622.37C2725.26 3619.89 2718.57 3617.27 2711.72 3615.2C2696.12 3619.21 2680.38 3622.93 2664.99 3627.65L2655.99 3630.43Z"/><path fill="#E9F4DD" d="M2684.87 3716.93C2657.57 3727.51 2630.03 3737.45 2602.27 3746.75C2519.48 3774.48 2434.28 3798.93 2347.95 3812.53C2262.29 3826.04 2177.33 3826.83 2090.87 3827.06C2011.19 3827.27 1930.46 3827.38 1851.05 3820.54C1690.85 3806.74 1527.6 3764.96 1378.77 3704.44C1316.79 3679.23 1253.91 3649.68 1196.01 3616.18C1175.13 3603.96 1154.38 3591.51 1133.77 3578.85C1123.3 3572.35 1114.07 3564.88 1102.91 3559.43C1094.26 3555.21 1088.86 3552.03 1082.53 3544.63C1089.57 3543.39 1119.73 3566.96 1126.66 3571.57C1132.88 3575.71 1139.81 3578.54 1146.17 3582.54C1327.57 3696.92 1566.38 3780.24 1779.03 3807.48C1878.22 3820.19 1977.37 3821.62 2077.2 3821.71C2186.56 3821.81 2293.35 3819.07 2400.8 3796.45C2479.12 3779.96 2558.23 3755.74 2633.64 3729.17C2684.35 3711.3 2735.26 3688.72 2788.12 3678.15C2794.86 3679.4 2799.1 3679.05 2804.07 3683.93C2803.09 3683.97 2802.11 3684.12 2801.14 3684.06C2800.37 3684 2799.63 3683.68 2798.87 3683.58C2778.46 3680.89 2755.1 3696.03 2734.86 3698.31L2731.63 3700.37C2718.34 3705.08 2704.16 3709.18 2691.36 3715.03L2684.87 3716.93Z"/><path fill="#E9F4DD" d="M3688.81 3427.87C3693.03 3431.32 3699.92 3435.73 3702.56 3440.32C3703.41 3450.59 3717.41 3465.13 3723.05 3474.38C3760.19 3535.32 3771.86 3602.4 3761.59 3672.26C3760.62 3675.22 3760.53 3678.59 3757.74 3680.15C3757.18 3680.53 3756.62 3680.9 3756.06 3681.28C3742.34 3690.86 3737.83 3710.69 3729.7 3724.97C3713.19 3753.96 3677.17 3796.25 3643.72 3803.96C3639.79 3801.27 3637.01 3798.47 3633.79 3795.01L3631.71 3795.63L3629.1 3804.38C3617.99 3809.9 3487.26 3807.88 3464.69 3807.9L3281.26 3807.92C3248.53 3807.91 3215.02 3806.46 3182.36 3808.42C3146.64 3810.55 3115.74 3827.68 3078.92 3827.54C3050.81 3827.29 3022.93 3822.41 2996.41 3813.09C2970.14 3804.14 2947.15 3789.49 2921.74 3779.12C2916 3776.78 2910.46 3778.99 2905.1 3776.17L2903.68 3776.32C2891.62 3766.14 2877.46 3756.17 2867.34 3744.15C2866.95 3731.18 2853.51 3731.76 2849.12 3721.13C2854.95 3720.57 2877.06 3744.58 2884.22 3749.16C2934.2 3781.13 2978.65 3809.73 3038.94 3818.82C3066.51 3822.98 3098.02 3824.06 3125.11 3816.25C3147.54 3809.77 3165.31 3802.86 3189.23 3802.11C3296.22 3798.77 3404.26 3801.65 3511.37 3801.6C3531.49 3801.59 3595.79 3804.72 3611.58 3801.8C3619.53 3800.33 3622.9 3796.51 3627.47 3790.32C3627.88 3789.76 3628.28 3789.2 3628.68 3788.64C3633.4 3788.54 3631.67 3788.19 3635.75 3789.42C3639.99 3790.7 3645.95 3793.4 3650.45 3792.37C3682.32 3785.08 3721.02 3735.25 3732.88 3705.61C3736.32 3697.03 3737.34 3681.14 3742.53 3674.6L3745.52 3679.81L3748.86 3678.72C3752.13 3673.74 3754.88 3669 3756.6 3663.25C3772.68 3609.58 3750.89 3534.22 3725.3 3486.69C3714.65 3466.9 3700.19 3449.53 3689.8 3429.79C3689.46 3429.16 3689.14 3428.51 3688.81 3427.87Z"/><path fill="#E9F4DD" d="M3516.96 3266.78C3519.97 3269.23 3522.94 3271.08 3524.89 3274.21C3525.12 3280.7 3540.32 3303.99 3544.57 3308.65C3572.4 3361.75 3585.12 3413.06 3584.81 3473.09C3584.71 3492.5 3587.36 3518.91 3572.23 3533.06C3571.57 3533.57 3570.97 3534.15 3570.26 3534.58C3558.66 3541.69 3551.63 3533.82 3545.79 3550.25C3542.45 3559.65 3541.55 3571.9 3535.21 3579.71C3538.25 3592.58 3542.6 3605.06 3545.73 3617.86C3553.88 3647.23 3546.71 3653.47 3550.05 3675.98C3556.86 3677.73 3560.09 3671.63 3567.23 3673.61C3568.83 3677.61 3568.62 3679.71 3567.9 3683.92C3566.45 3690.88 3566.29 3704.02 3565.96 3711.57L3243.63 3711.99C3196.84 3712.01 3141.23 3710.28 3094.59 3714.11C3084.93 3714.9 3058.17 3732.91 3042.49 3737.57C3007.34 3748.02 2984.85 3740.74 2953.27 3725.28C2948.36 3722.88 2945.73 3721.02 2944.7 3716.68L2947.94 3715.66C2999.43 3751.1 3041.05 3737.85 3089.05 3706.89C3240.84 3702.85 3408.86 3706.62 3561.72 3706.98L3561.75 3680.23L3536.97 3683.46C3554.67 3648.1 3540.62 3598.09 3517.47 3567.99C3535.73 3543.85 3535.74 3541.38 3543.01 3511.9C3555.47 3517.52 3561.45 3519.8 3574.53 3523.69C3586.17 3466.9 3573.96 3374.35 3547.4 3321.37C3541.15 3308.9 3517.9 3277.91 3516.96 3266.78Z"/><path fill="#40A572" d="M3547.22 3521.97C3556.31 3524.99 3564 3528.01 3572.23 3533.06C3571.57 3533.57 3570.97 3534.15 3570.26 3534.58C3558.66 3541.69 3551.63 3533.82 3545.79 3550.25C3542.45 3559.65 3541.55 3571.9 3535.21 3579.71C3533.43 3577.75 3530.72 3575.28 3529.54 3572.95C3526.12 3566.21 3543.79 3535.1 3546.36 3525.3L3547.22 3521.97Z"/><path fill="#E9F4DD" d="M3438.31 1952.4C3443.37 1956.26 3445.51 1957.08 3449.01 1962.21C3450.23 1969.45 3464.33 1989.56 3469.13 1999.09C3500.15 2060.71 3512.15 2126.03 3488.64 2192.54L3486.38 2198.32C3448.41 2266.6 3422.44 2245.17 3378.41 2292.97C3290.36 2388.57 3270.88 2560.52 3243.21 2687.04C3221.6 2778.66 3199.07 2856.5 3222.24 2951.64C3225.19 2963.75 3245.45 3017.37 3245.18 3022.8C3238.58 3017.26 3231.45 2992.46 3227.93 2983.72C3187.17 2882.48 3213.46 2787.56 3237.24 2686.4L3238.26 2684.24C3244.35 2650.66 3252.03 2618.55 3259.12 2582.74C3280.04 2477.08 3307.24 2337.29 3397.85 2268.44C3436.49 2239.08 3471.72 2234.62 3487.49 2178.11C3503.43 2121.02 3495.33 2068.01 3472.98 2014.21C3464.34 1994.57 3448.9 1973.55 3439.71 1955.23L3438.31 1952.4Z"/><path fill="#E9F4DD" d="M3602.72 3346.13C3607.48 3349.58 3614.13 3353.44 3616.67 3358.34C3616.94 3367.36 3632.33 3387.86 3638.28 3396.58C3662.9 3446.51 3677.65 3490.47 3680.7 3546.31C3677.34 3575.46 3669.66 3599.45 3658.88 3626.43C3653.38 3633.81 3653.1 3650.11 3645.26 3653.15L3638.36 3648.38C3625.71 3649.57 3613.57 3711.27 3595.49 3709.6C3597.96 3695.55 3627.05 3672 3626.15 3641.94C3630.44 3639.42 3639.42 3641.42 3645.5 3641.99C3652.13 3622.26 3664.22 3600.35 3669.43 3579.68C3684.13 3521.36 3664.35 3454.46 3637.02 3402.8C3626.7 3383.28 3613.77 3365.19 3602.72 3346.13Z"/><path fill="#E9F4DD" d="M3348.5 1866.29C3351.53 1868.85 3354.91 1871.18 3356.93 1874.37C3357.26 1882.74 3374.55 1905.39 3380.02 1916.99C3419.35 2000.49 3436.11 2088.91 3371.1 2162.64L3366.04 2155.95C3387.28 2146.48 3401.81 2100.82 3403.88 2078.66C3417.32 2022.98 3398.94 1966.7 3375.34 1916.18C3367.9 1900.27 3356.71 1883.97 3349.83 1869.18L3348.5 1866.29Z"/><path fill="#A1D3A2" d="M2732 3617.44C2761.98 3633.02 2785.19 3657.38 2813.72 3674.85C2840.18 3691.05 2871.11 3707.02 2901.35 3714.52C2914.68 3717.82 2928.66 3718.15 2941.61 3722.85L2940.34 3725.1L2939.98 3722.19L2938.17 3725.03C2890.88 3719.97 2851.82 3700.27 2810.5 3677.85L2800.37 3670.76C2778.42 3653.51 2756.78 3635.39 2731.96 3622.37L2732 3617.44Z"/><path fill="#40A572" d="M3680.7 3546.31C3682.83 3536.74 3680.46 3522.39 3683.54 3514.21C3683.24 3531.04 3687.54 3543.89 3690.17 3560.22C3693.09 3578.4 3674.52 3609.46 3664.64 3624.62L3658.88 3626.43C3669.66 3599.45 3677.34 3575.46 3680.7 3546.31Z"/><path fill="#40A572" d="M3545.73 3617.86L3546.41 3607.34L3548.32 3605.75C3553.3 3612.25 3555.21 3622.51 3557.21 3630.41C3560.38 3642.91 3550.36 3656.46 3562.73 3666.32C3564.92 3668.06 3568.3 3669.14 3570.81 3670.14C3574.22 3679.14 3572.77 3692.08 3570.48 3701.26C3568.79 3695.35 3568.23 3690.06 3567.9 3683.92C3568.62 3679.71 3568.83 3677.61 3567.23 3673.61C3560.09 3671.63 3556.86 3677.73 3550.05 3675.98C3546.71 3653.47 3553.88 3647.23 3545.73 3617.86Z"/><path fill="#40A572" d="M3440.68 2718.44C3457.8 2729.1 3520.04 2738.52 3531.57 2753.5L3529.79 2760.27L3528.02 2754.95C3499.01 2743.51 3469.7 2735.31 3439.34 2722.9L3440.68 2718.44Z"/><path fill="#40A572" d="M2691.36 3715.03C2691.6 3716.17 2691.82 3717.32 2692.08 3718.45C2697.67 3742.84 2720.44 3765.25 2724.88 3789.28C2708.43 3777.65 2695.71 3735.73 2684.87 3716.93L2691.36 3715.03Z"/><path fill="#40A572" d="M2430.39 3594.58L2436.22 3592.9C2447.49 3620.61 2456.03 3656.04 2470.54 3681.27L2466.63 3681.84C2457.62 3661.96 2443.81 3606.69 2430.39 3594.58Z"/><path fill="#A1D3A2" d="M3333.31 3080.9C3348.48 3098.92 3373.49 3128.66 3392.4 3141.08C3395.16 3138.85 3394.57 3139.59 3395.21 3138.55C3396.95 3143.56 3396.68 3143.27 3395.49 3148.52C3366.11 3124.5 3353.82 3110.82 3329.39 3082.66L3333.31 3080.9Z"/><path fill="#40A572" d="M2731.63 3700.37L2734.86 3698.31C2739.92 3712.68 2766.31 3766.74 2765.71 3774.79C2751.3 3756.12 2737.44 3723.36 2731.63 3700.37Z"/><path fill="#40A572" d="M2510.83 3668.78C2506.16 3647.46 2484.52 3618.94 2483.21 3599.69C2483 3596.68 2484.09 3599.28 2481.63 3595.68L2482.58 3599.29L2481.87 3595.56L2482.57 3597.87C2489.56 3601.82 2511.12 3656.16 2516.23 3667.6L2510.83 3668.78Z"/><path fill="#40A572" d="M2655.99 3630.43L2664.99 3627.65C2667.89 3637.66 2685.91 3693.23 2683.28 3698.98L2684.58 3698.97L2684.16 3700.8L2682.75 3698.39L2684.45 3699.59L2684.04 3697.09L2681.82 3696.5C2674.74 3680.41 2670.49 3643.02 2660.91 3632.24L2655.99 3630.43Z"/><path fill="#40A572" d="M3237.24 2686.4C3221.99 2681.33 3208.76 2681.54 3195.01 2676.03C3203.5 2672.49 3229.84 2680.12 3238.26 2684.24L3237.24 2686.4Z"/><path fill="#40A572" d="M2800.37 3670.76L2810.5 3677.85L2804.07 3683.93C2799.1 3679.05 2794.86 3679.4 2788.12 3678.15C2792.46 3677.68 2795.59 3677.29 2799.48 3675.23L2800.37 3670.76Z"/><path fill="#40A572" d="M3323.43 2755.6L3321.59 2751.28C3318.15 2749.19 3309.61 2744.37 3308.59 2740.81L3325.42 2748.1L3323.43 2755.6Z"/><path fill="#40A572" d="M3417.11 2073.29C3437.24 2081.43 3471.16 2114.68 3486.75 2130.94C3482.5 2130.19 3480.33 2129.14 3477.04 2126.36C3456.96 2109.45 3434.46 2092.98 3417.11 2073.29Z"/><path fill="#40A572" d="M3406.08 2123.22C3427.11 2134.62 3451.8 2165.53 3468.88 2182.93C3449.98 2177.47 3417.7 2139.85 3406.08 2123.22Z"/><path fill="#40A572" d="M2572.83 3559.32C2575.92 3571.58 2562.28 3607.67 2559.63 3622.27C2557.99 3631.32 2557.59 3640.68 2557.11 3649.86C2547.27 3626.09 2564.81 3582.52 2572.83 3559.32Z"/><path fill="#40A572" d="M2341.83 3626.89C2353.3 3631.62 2380.65 3681.3 2387.14 3694.69L2384.71 3694.93C2377.47 3690.12 2347.13 3636.71 2341.83 3626.89Z"/><path fill="#40A572" d="M3164.23 2623.61C3180.92 2620.88 3226.77 2631.93 3241.37 2641.75C3231.69 2639.93 3169.65 2627.79 3167.03 2626.38C3165.87 2625.76 3165.16 2624.53 3164.23 2623.61Z"/><path fill="#40A572" d="M2383.85 3612.91C2398.77 3621.64 2413.48 3655.31 2420.97 3670.98L2418.54 3671.61C2406.15 3658.99 2392.53 3629.36 2383.85 3612.91Z"/><path fill="#40A572" d="M2795.9 3689.45C2806.52 3702.01 2808.6 3740.04 2811.94 3756.6C2803.15 3741.11 2795.02 3707.35 2795.9 3689.45Z"/><path fill="#0AA558" d="M3031.2 553.101C3095.34 608.999 3149.5 652.268 3208.84 713.895C3212.6 717.275 3216.4 720.022 3218.98 724.156C3229.03 733.823 3239.24 743.324 3249.6 752.656C3263.3 764.746 3276.5 777.387 3289.18 790.547C3291.35 792.778 3313.06 815.394 3314.43 816.326C3319.4 820.232 3323.75 822.924 3326.97 828.314C3352.53 851.459 3385.41 880.777 3408.79 905.917C3412.15 908.966 3414.96 910.885 3417.15 914.674C3529.47 1014.54 3644.78 1125.13 3658.46 1284.71C3660.91 1313.22 3655.25 1366.46 3640.03 1391.46C3598.32 1459.98 3519.64 1532.48 3435.18 1536.77C3402.75 1538.42 3368.18 1531.45 3335.22 1533.92C3208.18 1536.77 3079.68 1534.48 2952.73 1537.38C2948.27 1549.67 2944 1564.48 2935.85 1574.62C2896.57 1623.49 2841.21 1653.96 2780 1661.76C2685.96 1675.37 2596 1633.33 2523.55 1576.52C2502.29 1559.85 2473.4 1537.31 2453.6 1519.41C2418.33 1487.51 2420.1 1484.21 2371.77 1475.88C2304.64 1464.31 2243.32 1464.04 2175.84 1472.41C2009.02 1492.83 1857.5 1579.72 1755.62 1713.4C1567.62 1955.4 1561.86 2318.18 1647.6 2600.4C1645.18 2608.38 1647.45 2605.01 1639.36 2609.99C1493.05 2542.47 1376.82 2423.29 1312.99 2275.33C1227.81 2074.95 1239.92 1831.63 1319.52 1632.76C1437.9 1336.98 1708.12 1137.01 2029.7 1138.14C2127.66 1138.49 2178.09 1147.48 2219.11 1244.97C2222.71 1249.96 2222.62 1249.61 2224.26 1255.51C2282.99 1378.76 2362.44 1377.96 2480.79 1403.16C2485.47 1404.16 2482.47 1404.14 2487.81 1403.15C2480.21 1397.11 2468.85 1394.42 2460.31 1388.89C2421.03 1363.45 2386.04 1331.29 2355.67 1295.77C2347.77 1286.53 2339.59 1277.48 2330.1 1269.99L2333.58 1266.18C2341.83 1272.45 2349.35 1277.98 2356.98 1285.05L2360.47 1281.54C2418.8 1238.7 2468.43 1190.34 2520.93 1140.99C2555.03 1110.18 2621.2 1093.63 2665.97 1094.68C2754.2 1096.75 2842.6 1094.91 2930.8 1096.67C2955.86 1097.17 2984.39 1102.09 3009.78 1104.28L3010.01 1104.38L3012.25 1103.25C3012.23 1093.25 3005.65 1064.16 3003.4 1052.96C3047.9 1061.22 3073.2 1061.76 3117.81 1062.1C3130.15 1045.2 3139.79 1033.32 3153.59 1018.04C3184.92 983.355 3221.42 957.2 3218.96 905.728C3212.57 771.664 3128.43 652.376 3035.74 563.262C3032.47 558.452 3032.23 558.718 3031.2 553.101Z"/><path fill="#0AA558" d="M3031.2 553.101C3095.34 608.999 3149.5 652.268 3208.84 713.895C3212.29 725.055 3244.19 767.542 3252.79 782.119C3298.81 860.093 3360.03 1037.78 3249.47 1089.14C3241.51 1104.54 3223.83 1124.9 3212.35 1138.55C3186.38 1127.08 3174.23 1121.75 3146.54 1132.64L3144.18 1133.59C3127.74 1126.66 3119.87 1122.18 3101.88 1124.14C3096.14 1127.75 3098.03 1125.25 3096.35 1132.13C3100.98 1148.8 3125.88 1179.06 3138.11 1191.64C3101.34 1189.05 3057.16 1189.79 3019.89 1189.63L2831.8 1189.26C2800.27 1189.27 2768.3 1189.27 2736.9 1189.02C2682.96 1188.58 2640.85 1184.32 2598.73 1223.91C2566.55 1254.15 2539.39 1287.5 2510.53 1320.85C2495.2 1307.2 2479.51 1293.95 2463.49 1281.11C2430.52 1289.16 2391.29 1302.46 2360.47 1281.54C2418.8 1238.7 2468.43 1190.34 2520.93 1140.99C2555.03 1110.18 2621.2 1093.63 2665.97 1094.68C2754.2 1096.75 2842.6 1094.91 2930.8 1096.67C2955.86 1097.17 2984.39 1102.09 3009.78 1104.28L3010.01 1104.38L3012.25 1103.25C3012.23 1093.25 3005.65 1064.16 3003.4 1052.96C3047.9 1061.22 3073.2 1061.76 3117.81 1062.1C3130.15 1045.2 3139.79 1033.32 3153.59 1018.04C3184.92 983.355 3221.42 957.2 3218.96 905.728C3212.57 771.664 3128.43 652.376 3035.74 563.262C3032.47 558.452 3032.23 558.718 3031.2 553.101Z"/><path fill="#0AA558" d="M3240.19 754.783C3243.34 753.288 3245.96 753.259 3249.6 752.656C3263.3 764.746 3276.5 777.387 3289.18 790.547C3291.35 792.778 3313.06 815.394 3314.43 816.326C3317.33 824.37 3327.83 838.899 3333.22 846.217C3388.72 921.597 3454.88 1108.04 3360.1 1177.38C3354 1173.67 3347.02 1167.95 3341.25 1163.5C3338.32 1177.79 3329.16 1199.85 3328.23 1212.49C3323.68 1274.11 3294.15 1294.27 3244.81 1273.23C3243 1243.28 3253.96 1232.84 3222.95 1217.88C3227.38 1211.64 3232.06 1203.07 3235.99 1196.33C3233.11 1173.09 3230.05 1161.68 3217 1142.41C3225.24 1132.54 3233.69 1122.58 3242.29 1113.17C3268.97 1083.98 3303.84 1066.22 3312.56 1024.12C3332.83 926.114 3288.37 835.698 3240.19 754.783Z"/><path fill="#E9F4DD" d="M3208.84 713.895C3212.6 717.275 3216.4 720.022 3218.98 724.156C3229.03 733.823 3239.24 743.324 3249.6 752.656C3245.96 753.259 3243.34 753.288 3240.19 754.783C3288.37 835.698 3332.83 926.114 3312.56 1024.12C3303.84 1066.22 3268.97 1083.98 3242.29 1113.17C3233.69 1122.58 3225.24 1132.54 3217 1142.41C3230.05 1161.68 3233.11 1173.09 3235.99 1196.33C3232.06 1203.07 3227.38 1211.64 3222.95 1217.88C3253.96 1232.84 3243 1243.28 3244.81 1273.23C3294.15 1294.27 3323.68 1274.11 3328.23 1212.49C3329.16 1199.85 3338.32 1177.79 3341.25 1163.5C3347.02 1167.95 3354 1173.67 3360.1 1177.38C3454.88 1108.04 3388.72 921.597 3333.22 846.217C3327.83 838.899 3317.33 824.37 3314.43 816.326C3319.4 820.232 3323.75 822.924 3326.97 828.314C3327.05 833.641 3349.16 862.758 3353.94 871.389C3397.85 950.575 3437.94 1062.81 3394.28 1149.93C3388.17 1161.48 3370.35 1180.72 3358.18 1185.54C3354.31 1183.52 3352.26 1182.35 3348.62 1179.94C3336.19 1190.64 3334.66 1232.13 3328.01 1247.23C3319.68 1266.11 3303.42 1282.58 3287.99 1296.06C3271.85 1289.04 3249.53 1281.25 3235.37 1273C3225.09 1285.1 3220.6 1289.31 3203.89 1289.93C3160.91 1291.52 3115.95 1290.19 3072.95 1289.98L2829.27 1290.6C2814.48 1290.69 2799.29 1290.48 2784.59 1290.88C2765 1291.42 2743.85 1289.26 2724.84 1293.88C2657.81 1310.14 2646.65 1404.64 2573.07 1407.83C2548.21 1408.36 2532.85 1405.38 2511.77 1390.9C2510.41 1378.28 2508.83 1365.67 2507.04 1353.09C2520.32 1390.21 2522.96 1402.53 2566.73 1402.42C2642.59 1402.23 2653.91 1302.2 2721.42 1287.72C2744.01 1282.88 2787.97 1284.37 2812.71 1284.17L2991.81 1283.59L3135.16 1284.47C3161.36 1284.66 3188.17 1285.61 3214.19 1282.78C3224.8 1281.62 3223.09 1274.7 3229.42 1267.73L3236.79 1267.31C3249.24 1250.28 3238.21 1232.76 3222.3 1223.35C3219.2 1221.53 3216.07 1219.75 3212.91 1218.03C3221.51 1209.39 3223.95 1207.18 3230.39 1196.51C3228.93 1186.58 3227.88 1175.73 3223.85 1166.52C3208.75 1132.1 3177.09 1123.07 3145.12 1140.59C3133.58 1134.9 3122.19 1127.41 3109.69 1129.84C3107.05 1132.76 3105.87 1132.7 3106.4 1136.08C3108.89 1151.91 3137.89 1186.03 3148.67 1198.32C3038.31 1197.1 2927.95 1196.82 2817.59 1197.5C2623.02 1198.13 2642.09 1181.68 2510.67 1331.09C2500.72 1317.81 2476.34 1297.27 2462.6 1287.43C2428.52 1296.64 2388.25 1309.35 2356.98 1285.05L2360.47 1281.54C2391.29 1302.46 2430.52 1289.16 2463.49 1281.11C2479.51 1293.95 2495.2 1307.2 2510.53 1320.85C2539.39 1287.5 2566.55 1254.15 2598.73 1223.91C2640.85 1184.32 2682.96 1188.58 2736.9 1189.02C2768.3 1189.27 2800.27 1189.27 2831.8 1189.26L3019.89 1189.63C3057.16 1189.79 3101.34 1189.05 3138.11 1191.64C3125.88 1179.06 3100.98 1148.8 3096.35 1132.13C3098.03 1125.25 3096.14 1127.75 3101.88 1124.14C3119.87 1122.18 3127.74 1126.66 3144.18 1133.59L3146.54 1132.64C3174.23 1121.75 3186.38 1127.08 3212.35 1138.55C3223.83 1124.9 3241.51 1104.54 3249.47 1089.14C3360.03 1037.78 3298.81 860.093 3252.79 782.119C3244.19 767.542 3212.29 725.055 3208.84 713.895Z"/><path fill="#40A572" d="M3240.19 754.783C3236.07 751.104 3220.01 730.48 3218.98 724.156C3229.03 733.823 3239.24 743.324 3249.6 752.656C3245.96 753.259 3243.34 753.288 3240.19 754.783Z"/><path fill="#E9F4DD" d="M2224.26 1255.51C2205.18 1252.03 2173.28 1235.52 2155.8 1233.32C2082.6 1224.14 1995.53 1228.8 1924.1 1243.38C1743.02 1281.42 1584.56 1390.05 1483.8 1545.24C1344.16 1757.52 1312.02 2019.1 1367.97 2264.56C1376.56 2303.21 1387.79 2341.22 1401.57 2378.33C1406.25 2390.94 1422.26 2424.97 1424.17 2434.29C1415.28 2432.31 1395.47 2373.03 1391.64 2362.06C1322.51 2163.7 1316.77 1938.02 1382.33 1738.94C1481.91 1436.55 1750.25 1215.57 2075.45 1223.38C2144.38 1225.04 2151.97 1221.76 2219.11 1244.97C2222.71 1249.96 2222.62 1249.61 2224.26 1255.51Z"/><path fill="#E9F4DD" d="M3408.79 905.917C3412.15 908.966 3414.96 910.885 3417.15 914.674C3419.28 921.35 3427.33 932.772 3431.71 939.174C3484.72 1016.51 3529.07 1149.41 3482.39 1238.78C3454.17 1292.81 3380.94 1351.46 3332.34 1388.55C3314.72 1374.65 3280.43 1379.72 3257.64 1379.98C3221.5 1380.46 3185.37 1380.74 3149.23 1380.83C3028.76 1380.92 2907.35 1379.33 2786.99 1380.47C2750.77 1416.62 2732.73 1466.77 2676.54 1491C2627.47 1512.16 2590.24 1501.27 2542.69 1483.67C2538.39 1484.6 2534.05 1485.37 2529.69 1485.98C2486.35 1492.36 2446.84 1468.05 2413.47 1443.29C2450.08 1460.5 2479 1487.07 2523.99 1481.62C2530.3 1480.85 2532.62 1481.21 2535.8 1477.28L2530.58 1469.79L2532.29 1467.67C2602.11 1505.77 2661.28 1511.75 2722.06 1451.57C2744.96 1428.9 2760.72 1399.76 2782.77 1377.58L2784.82 1375.55C2818.54 1374.06 2859.88 1375 2893.97 1375.07L3086.69 1375.39C3131.7 1375.49 3176.72 1375.35 3221.74 1374.96C3253.52 1374.62 3304.2 1370.51 3332.62 1380.26C3377.59 1348.76 3456.78 1280.23 3480.36 1229.79C3514.79 1148.42 3487.65 1051.77 3450.8 976.209C3440.64 955.379 3414.99 924.431 3408.79 905.917Z"/><path fill="#E9F4DD" d="M2168.93 1389.16C2214.39 1384.82 2269.25 1387.23 2311.79 1405.56C2322.89 1410.34 2332.5 1417.72 2343.01 1423.55C2347.6 1426.1 2352.49 1427.7 2356.83 1430.67L2355.96 1433.03C2352.81 1432.36 2350.74 1431.83 2348.06 1429.94C2346.11 1428.55 2344.21 1427.09 2342.23 1425.75C2325.34 1414.32 2305.39 1405.24 2285.56 1400.39C2223.11 1385.13 2125.07 1393.63 2061.42 1405.74C1892.92 1437.78 1748.05 1538.26 1651.96 1679.2C1509.65 1887.94 1491.04 2161.48 1537.03 2403.53C1546.72 2443.39 1556.1 2482.94 1568.66 2522.02C1573.03 2535.6 1585.89 2560.36 1585.57 2573.46L1583.02 2572.04C1574.63 2557.42 1569.98 2539.84 1564.64 2523.91C1536.18 2438.6 1518.6 2350.04 1512.31 2260.32C1496.83 2024.42 1543.62 1786.12 1703.13 1604.41C1796.26 1498.37 1922.1 1426.43 2060.73 1399.98C2096.54 1393.38 2132.67 1391.53 2168.93 1389.16Z"/><path fill="#E9F4DD" d="M2083.15 1308.84C2113.8 1306.53 2145.38 1306.27 2176.09 1307.59C2186 1308.02 2208.69 1307.16 2215.56 1314.63C2208.95 1317.32 2190.78 1312.64 2183.02 1312.34C2163.25 1311.58 2143.23 1311.8 2123.46 1312.2C2058.05 1313.52 1994.68 1322.28 1931.89 1340.83C1761.79 1392.57 1619.03 1509.43 1534.7 1665.95C1408.52 1899.39 1404.28 2176.05 1479.16 2426.49C1489.87 2459.88 1503.46 2492.08 1514.39 2525.32C1470.91 2461.78 1432.92 2264.07 1426.96 2184.73C1409.81 1956.13 1462.6 1717.78 1614.8 1541.27C1738.13 1398.22 1895.55 1322.88 2083.15 1308.84Z"/><path fill="#E9F4DD" d="M3497.99 993.983C3517.45 1009.72 3531.37 1041.56 3541.87 1063.61C3577.17 1137.75 3602 1224.25 3572.7 1304.85C3547 1375.53 3458.52 1438.7 3393.3 1469.38C3377.11 1464.57 3361.94 1460.94 3345.09 1459.64C3322.61 1457.91 3299.32 1459.45 3276.74 1459.65L3162.2 1459.9C3065.72 1460.01 2968.11 1456.97 2871.77 1460.93C2861.73 1478.35 2851.76 1496.27 2839.69 1512.38C2807.14 1555.83 2755.93 1582.29 2702.66 1589.71C2623.56 1600.75 2547.51 1575.87 2484.35 1528.67C2483.69 1528.08 2481.4 1526.11 2480.96 1525.45C2480.38 1524.59 2480.23 1523.49 2479.64 1522.65C2479.24 1522.08 2478.59 1521.75 2478.06 1521.31C2489.63 1529.49 2501.22 1537.64 2513.42 1544.88C2577.05 1582.68 2656.11 1597.41 2728.39 1578.64C2802.38 1559.43 2831.61 1518.86 2868.42 1456.57C2968.76 1454.24 3069.42 1455.61 3169.78 1455.56L3262.1 1455.34C3307.55 1454.83 3348.33 1452.25 3392.93 1463.6C3407.45 1456.24 3421.56 1448.53 3435.24 1439.69C3496.72 1399.99 3559.28 1351.45 3574.84 1276.22C3595.24 1177.65 3551.45 1074.73 3497.99 993.983Z"/><path fill="#40A572" d="M2251.21 1339.72C2260.49 1341.81 2269.05 1350.06 2277.62 1354.49C2294.72 1363.35 2317.33 1368.5 2332.17 1380.43C2305.85 1378.51 2270.39 1357.22 2251.21 1339.72Z"/><path fill="#0AA558" d="M1437.52 2575.48C1398.79 2543.61 1363.61 2507.66 1332.59 2468.26C1037.43 2092.18 1130.93 1502.03 1501.77 1211.87C1670.46 1081.06 1883.89 1021.96 2095.84 1047.36C2123.01 1050.68 2149.27 1059.27 2173.16 1072.64C2247.56 1113.95 2251.33 1169.17 2301.76 1235.49L2299.17 1240.71C2277.07 1211 2266.51 1188.4 2247.33 1160.24C2185.02 1129.7 2136.08 1130.57 2069.04 1130.03C1968.68 1129.23 1876.1 1138.46 1780.77 1171.2C1585.87 1240.26 1425.97 1383.25 1335.64 1569.25C1202.64 1842.17 1199.97 2250.76 1384.11 2501.21C1399.13 2521.64 1422.07 2552.34 1439.99 2569.63L1437.52 2575.48Z"/><path fill="#0AA558" d="M2232.34 2272.48C2278.03 2262.9 2319.7 2274.6 2361.79 2292.18C2376.56 2298.58 2378.32 2301.37 2387.96 2314.41C2383.57 2333.67 2365 2419.34 2358.39 2430.25C2360.77 2437.32 2361.12 2433.88 2363.36 2437.61C2354.28 2486.3 2351.28 2530.56 2350.21 2580.15C2312.62 2581.77 2201.63 2618.78 2162.85 2633.49L2159.97 2629.26C2124.16 2607.55 2095.04 2578.44 2063.99 2550.64C2058.03 2546.82 2052.66 2540.2 2047.78 2534.87C2021.26 2509.2 1984.14 2475.33 1960.12 2448.58C1953.69 2444.98 1950.97 2440.51 1946.36 2434.73C1916.85 2409.11 1873.31 2359.75 1845.88 2329.64L1853.21 2328.01C1924.07 2391.46 1982.26 2422.76 2077.95 2404.83C2105.78 2396.4 2102.1 2399.05 2121.57 2378.07L2124.67 2381.99L2126.9 2381.86C2134.91 2366.74 2123.82 2321.77 2127.49 2297.18L2132.12 2294.36C2139.28 2297.94 2145.15 2303.02 2151.5 2307.95C2177.63 2285.66 2198.05 2276.85 2232.34 2272.48Z"/><path fill="#E9F4DD" d="M2233.34 2413.41C2242.67 2394.59 2255.25 2378.33 2276.03 2372.56C2297.71 2366.54 2337.5 2365.82 2348.62 2388.8L2347.49 2390.01L2344.99 2388.44C2295.87 2358.02 2252.33 2373.73 2235.74 2429.26C2230.99 2422.51 2225.83 2414.79 2220.91 2408.27C2206.22 2447.61 2203.59 2460.66 2204.62 2503.62C2191.85 2489.94 2187.24 2483.5 2177.89 2466.84C2156.39 2486.3 2161.65 2473.46 2146.73 2480.41C2121.23 2492.27 2109.82 2497.84 2079.33 2496.18C2048.08 2494.48 2018.04 2485.25 1991 2469.01C1981.53 2463.27 1969.87 2452.67 1960.12 2448.58C1953.69 2444.98 1950.97 2440.51 1946.36 2434.73C1959.89 2441.42 1969.1 2452.3 1981.69 2460.13C2020.85 2484.29 2066.97 2499.39 2112.9 2488.34C2123 2485.91 2144.91 2472.06 2149.94 2471.96C2168.21 2471.6 2164.39 2471.47 2178.94 2457.42C2185.21 2468.68 2191.44 2480.76 2199.05 2491.1C2199.23 2461.75 2202.76 2429.81 2217.39 2403.53C2222.51 2403.77 2228.42 2409.68 2233.34 2413.41Z"/><path fill="#E9F4DD" d="M2047.78 2534.87C2092.71 2562.55 2130.68 2582.61 2185.93 2569.91C2197.92 2567.15 2204.18 2566.08 2210.93 2556.04C2217.07 2556.84 2214.72 2556.09 2219.97 2560.22L2219.71 2563.42L2216.7 2557.48L2219.22 2564.14C2199.61 2578.03 2160.39 2579.65 2137.59 2577.38C2113.22 2574.96 2071.42 2550.14 2063.99 2550.64C2058.03 2546.82 2052.66 2540.2 2047.78 2534.87Z"/><path fill="#FBFDF6" d="M2151.5 2307.95C2177.63 2285.66 2198.05 2276.85 2232.34 2272.48C2240.64 2276.83 2243.01 2275.25 2251.23 2277.49C2210.75 2278.45 2184.36 2286.39 2153.26 2313.25C2146.77 2307.92 2137.16 2300.66 2132.12 2294.36C2139.28 2297.94 2145.15 2303.02 2151.5 2307.95Z"/><path fill="#E9F4DD" d="M2337.99 2463.67L2339.99 2466.82C2333.26 2475.03 2324.35 2481.38 2316.17 2488.1C2316.64 2491.04 2317.44 2494.69 2317.12 2497.64C2316.45 2503.95 2308.69 2511.17 2304.35 2515.39C2280.43 2538.62 2284.75 2535.63 2253.85 2535.36C2252.74 2544.31 2260.38 2557.67 2264.08 2566.23L2260.7 2565.56C2254.37 2555.78 2248.27 2543.68 2246.87 2532.06L2249.99 2528.81C2258.5 2526.88 2267.33 2529.52 2275.78 2531.09C2285.42 2523.98 2297.87 2516.21 2305.2 2506.79C2311.2 2499.09 2311.53 2493.42 2310.65 2483.9C2320.45 2477.97 2329.12 2470.86 2337.99 2463.67Z"/><path fill="#0AA558" d="M2052.94 2234.68C2116.44 2197.77 2177.51 2162.94 2253.82 2183.22C2289.73 2192.76 2330.52 2216.35 2351.07 2248.03C2355.34 2262.62 2369.29 2274.47 2366.48 2288.34C2364.24 2290.68 2364.41 2291.23 2361.79 2292.18C2319.7 2274.6 2278.03 2262.9 2232.34 2272.48C2198.05 2276.85 2177.63 2285.66 2151.5 2307.95C2145.15 2303.02 2139.28 2297.94 2132.12 2294.36L2127.49 2297.18C2123.82 2321.77 2134.91 2366.74 2126.9 2381.86L2124.67 2381.99L2121.57 2378.07C2102.1 2399.05 2105.78 2396.4 2077.95 2404.83L2075.92 2398.19C1978.64 2389.11 1937.09 2329.4 1883.78 2256.03L1886.61 2248.15C1935.87 2295.79 1956.29 2304.82 2021 2315.14C1993.02 2287.95 1984.13 2274.87 1965.42 2240.54L1970.39 2235.61C1983.87 2245.16 1992.52 2249.75 2007.37 2257.38C2019.91 2252.44 2031.22 2248.23 2043.17 2241.94L2039.09 2236.37L2047.82 2230.5L2052.94 2234.68Z"/><path fill="#FBFDF6" d="M2119.81 2277.38L2132.12 2294.36L2127.49 2297.18C2123.82 2321.77 2134.91 2366.74 2126.9 2381.86L2124.67 2381.99L2121.57 2378.07C2102.1 2399.05 2105.78 2396.4 2077.95 2404.83L2075.92 2398.19C2095.39 2394.34 2107.42 2394.84 2113.71 2374.02C2116.25 2366.85 2115.08 2369.25 2123.41 2364.41C2121.97 2335.2 2122.22 2306.69 2119.81 2277.38Z"/><path fill="#E9F4DD" d="M2039.09 2236.37L2047.82 2230.5L2052.94 2234.68C2062.77 2245.76 2067.72 2250.42 2075.82 2263C2069 2257.41 2053.37 2242.34 2047.9 2240.59L2043.17 2241.94L2039.09 2236.37Z"/><path fill="#0AA558" d="M2045.84 2106.38C2060.4 2098.57 2075.6 2092.01 2091.26 2086.75C2160.17 2064.16 2258.83 2066.94 2324 2100.77C2364.89 2122 2382.02 2145.35 2395.87 2188.15L2392.01 2191.98C2397.9 2234.1 2396.41 2268.79 2389.83 2310.72C2377.64 2292.55 2363.54 2261.48 2351.07 2248.03C2330.52 2216.35 2289.73 2192.76 2253.82 2183.22C2177.51 2162.94 2116.44 2197.77 2052.94 2234.68L2047.82 2230.5L2039.09 2236.37C2027.51 2187.87 2020.71 2152.56 2045.84 2106.38Z"/><path fill="#40A572" d="M2416.56 2061.35L2420.28 2057.04C2464.1 2079.36 2486.44 2093.8 2490.49 2145.98L2492.67 2146.42L2497.95 2146C2480.02 2208.36 2478.95 2271.62 2463.8 2331.6C2435.91 2442.02 2386.8 2518.32 2394.87 2639.06C2305.21 2642.07 2255.33 2660.88 2175.02 2698.2C2096.6 2734.64 2001.29 2746.2 1915.37 2746.47C1741.73 2750.27 1569.61 2696.84 1440.04 2578.16C1438.21 2576.5 1438.73 2577.05 1437.52 2575.48L1439.99 2569.63C1575.98 2696.11 1744.91 2746.19 1927.59 2741.86C1986.6 2740.45 2056.46 2733.6 2112.63 2715.63C2219.52 2681.44 2268.41 2635.49 2388.3 2633.81C2387.77 2526.97 2419.43 2452.84 2452.58 2353.99C2464.11 2319.61 2468.98 2270.51 2474.88 2233.73C2487.86 2152.86 2505.02 2100.58 2416.56 2061.35Z"/><path fill="#0AA558" d="M2365.29 2036.11C2423.67 2034.99 2482.08 2036.49 2540.33 2035.41C2523.48 2074.21 2511.48 2105.91 2497.95 2146L2492.67 2146.42L2490.49 2145.98C2486.44 2093.8 2464.1 2079.36 2420.28 2057.04L2416.56 2061.35C2380.53 2051.77 2334.1 2046.74 2296.76 2041.52C2309.97 2031.32 2344.51 2040.32 2365.29 2036.11Z"/><path fill="#40A572" d="M1647.6 2600.4C1653.5 2614.12 1659.32 2616 1674.89 2621.88C1831.58 2681.1 2000.54 2692.23 2158.55 2629.94C2159.02 2629.71 2159.5 2629.49 2159.97 2629.26L2162.85 2633.49C2015.42 2687.55 1870.6 2692.04 1720.47 2642.59C1692.35 2633.33 1665.25 2625.07 1639.36 2609.99C1647.45 2605.01 1645.18 2608.38 1647.6 2600.4Z"/><path fill="#40A572" d="M2395.87 2188.15C2414.57 2266.39 2381.3 2360.83 2363.36 2437.61C2361.12 2433.88 2360.77 2437.32 2358.39 2430.25C2365 2419.34 2383.57 2333.67 2387.96 2314.41C2378.32 2301.37 2376.56 2298.58 2361.79 2292.18C2364.41 2291.23 2364.24 2290.68 2366.48 2288.34C2369.29 2274.47 2355.34 2262.62 2351.07 2248.03C2363.54 2261.48 2377.64 2292.55 2389.83 2310.72C2396.41 2268.79 2397.9 2234.1 2392.01 2191.98L2395.87 2188.15Z"/><path fill="#40A572" d="M2061.42 2082.98C2106.47 2026.82 2203.47 2032.35 2267.21 2034.25C2299.66 2035.21 2332.95 2034.64 2365.29 2036.11C2344.51 2040.32 2309.97 2031.32 2296.76 2041.52C2291.42 2042.21 2252.81 2040.42 2245.42 2040.14C2159.55 2036.83 2132.07 2036.57 2061.42 2082.98Z"/><path fill="#40A572" d="M2301.76 1235.49C2313.97 1250.79 2317.61 1253.93 2333.58 1266.18L2330.1 1269.99C2316.19 1260.29 2309.46 1253.72 2299.17 1240.71L2301.76 1235.49Z"/><path fill="#0AA558" d="M1355.51 2625.48C1247.88 2528.58 1170.84 2413.06 1120.18 2278C1050.13 2093.86 1037.01 1892.93 1082.52 1701.26C1182.06 1269.66 1533.09 931.002 1986.16 943.911C2095.29 947.021 2191.29 951.92 2273.66 1037C2299.21 1063.38 2319.06 1099.07 2338.1 1129.96L2333.91 1131.86C2328.54 1123.86 2311.7 1097.95 2305.55 1092.61C2273.42 1064.74 2227.05 1049.84 2186.64 1041.35C2132.42 1029.96 2086.93 1033.11 2034.23 1031.42C1855.07 1025.67 1683.9 1066.28 1534.25 1167.77C1381.53 1271.35 1269.57 1418.85 1202.33 1590.48C1180.12 1647.17 1160.89 1701.12 1150.19 1762.93C1105.99 2018 1140.55 2310.56 1284.92 2530.11C1303.54 2558.44 1337.19 2601.19 1360.75 2623.11L1355.51 2625.48Z"/><path fill="#40A572" d="M1965.42 2240.54C1953.62 2217.15 1941.91 2194.9 1936.84 2168.88C1920.86 2086.93 1966.47 2006.07 2039.69 1969.32C2059.5 1959.14 2080.92 1952.5 2103.01 1949.67C2135.08 1945.48 2203.77 1947.84 2239.39 1947.9L2511.88 1947.79C2559.38 1947.81 2636.19 1949.79 2681.62 1944.47C2621.59 2017.58 2577.64 2121.45 2560.96 2213.89C2544.24 2306.52 2534.93 2382.46 2495.23 2469.66C2465.44 2535.12 2451.97 2622.05 2459.49 2694.02C2459.99 2698.8 2460.66 2703.55 2461.49 2708.28C2432.95 2700.77 2408.25 2702.05 2378.98 2705.9C2343.91 2710.17 2309.49 2718.71 2276.5 2731.34C2250.5 2741.55 2224.79 2754.84 2199.44 2766.71C2109.07 2809.02 2012.31 2821.69 1913.47 2824.41C1710.75 2829.98 1504.95 2766.09 1355.51 2625.48L1360.75 2623.11C1522.47 2767.21 1715.35 2827.42 1930.23 2818.81C2055.62 2813.79 2148.94 2790.22 2260.95 2731.9C2306.69 2708.08 2394.54 2695.8 2447.46 2695.59C2446.65 2624.65 2458.69 2554.16 2482.99 2487.51C2497.11 2449.57 2515.11 2411.67 2525.21 2372.59C2539.11 2318.75 2546.12 2261.58 2556.93 2207.21C2572.61 2128.37 2614.27 2024.01 2660.13 1957.88C2635.08 1958.6 2594.51 1953.29 2564.28 1953.13L2255.92 1953.16C2214.52 1952.94 2138.65 1950.16 2101.32 1955.48C2076.97 1958.86 2053.48 1966.89 2032.16 1979.13C1989.22 2003.47 1957.79 2043.97 1944.87 2091.6C1929.59 2149.35 1941.78 2186.09 1970.39 2235.61L1965.42 2240.54Z"/><path fill="#40A572" d="M2338.1 1129.96C2353.9 1151.78 2369.96 1173.41 2386.27 1194.85C2389.93 1188.69 2388.57 1182.92 2389.82 1175.47C2390.66 1184.72 2392.06 1190.98 2389.27 1199.78L2385.36 1203.79C2373.34 1183.74 2348.57 1152.13 2333.91 1131.86L2338.1 1129.96Z"/><path fill="#40A572" d="M2389.39 1033.95C2400.77 1051.3 2406.48 1061.27 2413.09 1081.28L2410.06 1084.56C2402.07 1064.72 2397.41 1054.15 2385.29 1036.65L2389.39 1033.95Z"/><path fill="#0AA558" d="M1275.31 2677.37C1222.45 2626.77 1181.24 2580.41 1138.67 2520.75C1035.38 2375.99 968.264 2161.62 958.726 1984.33C954.651 1893.93 960.894 1803.35 977.335 1714.37C1026.6 1427.05 1188.1 1171.12 1426.23 1002.99C1616.73 870.601 1875.46 814.793 2104.22 854.802C2234.41 877.573 2314.79 926.172 2389.39 1033.95L2385.29 1036.65C2368.35 1018.48 2350.54 1007.45 2329.85 994.4C2244.3 940.434 2151.48 928.688 2053.59 924.584C1857.57 916.365 1677.73 939.999 1507.12 1042.25C1438.7 1083.26 1401.81 1108.47 1341.04 1164.68C1139.55 1351.06 1030.9 1627.95 1020.15 1899.3C1009.95 2156.78 1080.18 2463.24 1261.62 2655.62C1266.79 2661.08 1272.12 2666.39 1277.59 2671.55L1275.31 2677.37Z"/><defs><linearGradient id="gradient_2" gradientUnits="userSpaceOnUse" x1="1579.0463" y1="3599.9346" x2="1254.271" y2="700.33533"><stop offset="0" stop-color="#05A559"/><stop offset="1" stop-color="#67AA7D"/></linearGradient></defs><path fill="url(#gradient_2)" d="M382.307 2000.66C381.315 1952.16 382.429 1903.65 385.646 1855.25C408.232 1508.2 555.619 1152.78 778.356 886.793C817.162 840.453 872.448 778.847 917.855 738.923L922.638 741.031C856.513 803.887 795.252 871.669 739.381 943.792C524.434 1224.48 393.763 1582.38 387.185 1934.12C380.156 2309.97 501.927 2750.83 769.645 3022.37C1059.14 3315.99 1499.94 3454.4 1903.97 3457.93C2043.82 3459.15 2171.95 3452.9 2306.52 3409.74C2364.53 3392.46 2428.1 3367.74 2487.26 3358.03C2542.64 3348.94 2579.48 3393.57 2594.08 3441.4C2534.5 3438.98 2415.9 3481.4 2351.34 3499.36C2297.86 3514.44 2243.56 3526.44 2188.71 3535.32C2098.76 3549.65 2025.86 3550.52 1934.99 3549.31C1616.89 3545.07 1296.46 3460.91 1030.88 3282.46C947.847 3226.67 863.216 3144.86 795.309 3072.31C581.92 2844.34 453.17 2550.63 404.117 2244.03C395.02 2187.17 383.831 2104.84 383.949 2046.88C381.503 2033.84 381.449 2013.92 382.307 2000.66Z"/><path fill="#74B098" d="M382.307 2000.66C387.297 2007.41 384.937 2037.45 383.949 2046.88C381.503 2033.84 381.449 2013.92 382.307 2000.66Z"/><path fill="#0AA558" d="M756.282 2860.47C757.215 2853.27 759.166 2854.13 765.308 2851.01C1069.54 3246.83 1623.15 3404.32 2106.99 3344.56C2150.01 3339.25 2199.72 3325.76 2241.55 3314.37C2277.88 3304.18 2314.05 3293.41 2350.04 3282.09C2390.97 3269.51 2427.69 3254.63 2471.1 3253.32C2547.46 3251 2594.71 3300.39 2624.45 3366.75L2616.45 3367.49C2587.91 3358.96 2567.17 3341.74 2532.6 3342.03C2461.84 3344.73 2387.36 3373.9 2318.92 3395.26C2090 3466.71 1834.53 3460.12 1599.32 3412.39C1264.77 3344.49 944.435 3152.59 756.282 2860.47Z"/><defs><linearGradient id="gradient_3" gradientUnits="userSpaceOnUse" x1="2788.5073" y1="1155.8016" x2="2483.3774" y2="222.01588"><stop offset="0" stop-color="#02A755"/><stop offset="1" stop-color="#3F9E7A"/></linearGradient></defs><path fill="url(#gradient_3)" d="M2210.34 310.622C2386.48 331.467 2582.96 402.506 2743.67 479.311C2893.82 551.067 3047.42 669.983 3152.17 799.146C3185.74 841.495 3211.8 870.634 3203.7 926.152C3198.43 962.322 3183.61 978.636 3158.11 1002.75C3147.19 1005.11 3149.09 1003.71 3140.9 1015.78C3131.46 1029.69 3123.09 1045.74 3111 1057.65L3117.81 1062.1C3073.2 1061.76 3047.9 1061.22 3003.4 1052.96C3005.65 1064.16 3012.23 1093.25 3012.25 1103.25L3010.01 1104.38L3009.78 1104.28C3008.74 1098.98 3009.58 1101.53 3004.01 1096.88C2941.77 1078.37 2848.21 1085.53 2782.35 1085.14C2733.37 1084.86 2664.46 1080.52 2617.32 1087.02C2593.55 1090.11 2570.56 1097.58 2549.52 1109.06C2512.46 1129 2484.66 1159.07 2454.04 1187.17C2436 1203.73 2416.94 1219.86 2398.4 1235.94C2394.83 1227.02 2389.34 1211.97 2385.36 1203.79L2389.27 1199.78C2392.06 1190.98 2390.66 1184.72 2389.82 1175.47C2391.44 1122 2401.33 1125.43 2410.06 1084.56L2413.09 1081.28C2418.04 1077.46 2426.32 1067.6 2431.39 1062.59C2448.82 1044.97 2467.33 1030.98 2489.52 1020.06C2555.4 987.642 2627.45 993.547 2698.76 993.24C2764.57 992.957 2831.92 992.54 2897.71 996.876C2905.37 997.381 2955.17 1003.06 2958.18 1001.51C2954.35 995.371 2952.86 995.301 2952.86 989.195C2969.82 966.262 3006.25 953.959 3006.07 913.269C3005.8 851.349 2950.58 771.953 2910.6 728.557C2800.24 607.133 2658.84 554.514 2511.53 496.114C2346.4 430.65 2224.13 404.951 2047.35 395.59C2046.08 394.806 2044.81 394.022 2043.54 393.238C2044.23 392.839 2044.93 392.441 2045.62 392.042C2053.72 393.316 2055.72 392.771 2064.04 391.821C2072.22 391.599 2082.08 392.216 2090.37 392.605C2240.42 399.636 2370.59 435.065 2509.68 490.268C2575.01 516.194 2636.89 537.832 2701.53 569.086C2836.19 635.479 2956.91 727.03 3057.16 838.799C3086.06 870.736 3104.5 891.396 3101.82 937.019C3101.28 946.264 3099.15 953.123 3098.64 963.791L3100.55 965.148C3107.6 956.479 3109.56 948.528 3110.99 937.474C3121.28 857.515 3075.3 767.351 3027.31 706.784C2910.47 559.309 2749.25 478.112 2577.18 413.536C2440.65 362.299 2347.13 332.984 2203.24 315.097L2210.34 310.622Z"/><path fill="#FBFDF6" d="M2993.85 1043.16C3034.72 1053.87 3073.23 1051.71 3111 1057.65L3117.81 1062.1C3073.2 1061.76 3047.9 1061.22 3003.4 1052.96C3005.65 1064.16 3012.23 1093.25 3012.25 1103.25L3010.01 1104.38L3009.78 1104.28C3008.74 1098.98 3009.58 1101.53 3004.01 1096.88C3004.13 1086.39 2996.36 1054.1 2993.85 1043.16Z"/><path fill="#0AA558" d="M2881.28 1927.87C2882.14 1926.9 2883 1925.94 2883.86 1924.97C2950.98 1871.16 3050.41 1815.03 3122.41 1882.55C3158.16 1887.07 3166.27 1888.04 3177.37 1924.26C3162.17 1917.12 3153.87 1914.67 3137.58 1912.58C3063.53 1907.46 2995.06 1942.33 2940.58 1990.09C2911.36 2016.2 2885.79 2046.14 2864.59 2079.1C2779.27 2209.51 2792.66 2330.66 2747.63 2474.24C2724.34 2548.53 2683.71 2591.24 2653.7 2660.04C2641.11 2688.89 2632.18 2719.52 2625.71 2750.28C2623.75 2759.6 2620.33 2795.78 2618.26 2801.28C2616.75 2806.83 2616.03 2809.13 2613.86 2814.44L2611.86 2814.11C2610.57 2809.37 2609.46 2805.31 2607.69 2800.69L2606.46 2797.54C2599.2 2739.56 2602.25 2677.21 2610.96 2619.47C2617.92 2584.45 2627.2 2549.94 2638.74 2516.16C2650.65 2481.42 2666.2 2442.93 2675 2408.01C2710.01 2269.19 2709.18 2135.61 2799.84 2016.06C2824.37 1983.71 2849.14 1953.88 2881.28 1927.87Z"/><path fill="#40A572" d="M2610.96 2619.47C2617.92 2584.45 2627.2 2549.94 2638.74 2516.16C2650.65 2481.42 2666.2 2442.93 2675 2408.01C2710.01 2269.19 2709.18 2135.61 2799.84 2016.06C2824.37 1983.71 2849.14 1953.88 2881.28 1927.87C2878.07 1941.39 2858.15 1955.93 2848.3 1966.61C2837.38 1978.47 2827.82 1989.13 2817.77 2001.9C2785.45 2042.83 2759.34 2088.3 2740.29 2136.85C2737.32 2144.23 2739.54 2155.2 2736.99 2162.77C2735.34 2167.68 2730.32 2167.24 2729.82 2169.4C2722.2 2202.43 2715.68 2235.72 2708.99 2268.94C2707.24 2277.62 2705.07 2286.24 2705.35 2295.09L2707.37 2295.9L2710.43 2294.27C2706.94 2310.34 2696.9 2321.21 2695.66 2336.5C2693.78 2359.64 2658.87 2500.3 2648.16 2512.7L2647.24 2507.02C2640.45 2532.2 2632.87 2557.21 2624.98 2582.07C2621.05 2594.46 2618.52 2618.71 2614.7 2627.49L2612.66 2627.46L2610.96 2619.47Z"/><path fill="#0AA558" d="M3190.71 3099.44L3191.48 3089.62C3196.12 3085.38 3195.48 3086.87 3204.04 3086.95C3310.09 3150.74 3404.49 3244.85 3357.89 3377.98L3356.67 3383.13C3348.86 3380.57 3341.79 3378.15 3333.51 3377.68L3331.82 3382.33L3326.85 3384.03C3336.67 3416.71 3344.71 3466.55 3347.8 3501.12C3260.11 3500.22 3172.42 3499.86 3084.72 3500.03C3053.79 3499.96 2996.47 3496.14 2968.62 3501.1C2943.36 3505.59 2879.92 3551.87 2869.46 3552.4C2854.01 3553.19 2801.86 3504.64 2778.81 3494.03C2770.35 3490.14 2761.34 3488.58 2752.22 3487.02C2773.91 3477.53 2795.96 3468.32 2816.44 3456.37C2840.27 3442.48 2862.19 3424.14 2888.44 3414.93C2905.58 3408.91 2923.91 3405.74 2941.95 3404.02C2984.34 3399.99 3028.12 3402.14 3070.71 3402.28C3112.59 3402.43 3155.73 3400.63 3197.38 3404.81C3218.52 3406.93 3238.87 3411.73 3259.28 3417.48L3264.21 3415.49L3265.29 3412.65C3264.9 3407.63 3252.58 3375.46 3250.06 3368.34C3258.23 3339.02 3257.81 3331 3258.84 3300.56C3264.44 3309.14 3257.5 3322.8 3263.43 3333.56C3284.39 3251.82 3248.66 3157.86 3190.71 3099.44Z"/><path fill="#FBFDF6" d="M3258.84 3300.56C3264.44 3309.14 3257.5 3322.8 3263.43 3333.56C3261.42 3347.35 3259.66 3356.53 3256.38 3370.08C3263.58 3389.58 3269.52 3405.95 3278.5 3424.82L3259.28 3417.48L3264.21 3415.49L3265.29 3412.65C3264.9 3407.63 3252.58 3375.46 3250.06 3368.34C3258.23 3339.02 3257.81 3331 3258.84 3300.56Z"/><path fill="#FBFDF6" d="M3320.29 3363.93C3332.62 3370.46 3344.42 3374.62 3357.89 3377.98L3356.67 3383.13C3348.86 3380.57 3341.79 3378.15 3333.51 3377.68L3331.82 3382.33L3326.85 3384.03L3320.29 3363.93Z"/><path fill="#0AA558" d="M2824.69 766.34C2826.84 761.682 2825.42 763.834 2830.3 760.649C2880.84 794.927 2993.09 886.786 2966.19 961.127C2962.96 970.034 2951.3 964.445 2944.95 993.318C2894.11 983.854 2854.16 976.52 2802.05 977.564C2714.56 979.316 2626.19 973.552 2538.93 981.2C2494.18 985.007 2474.73 967.923 2448.81 1013.23C2445.61 997.917 2442.48 981.261 2438.83 966.164L2442.66 963.886C2457.84 949.507 2462.94 945.552 2481.39 937.415C2485 928.512 2487.03 922.929 2489.65 913.704L2495.33 913.25C2498.92 913.949 2536.86 889.87 2549.27 888.828C2636.55 881.506 2729.6 881.78 2816.88 888.98C2836.24 890.577 2870.57 908.095 2887.16 917.64C2876.79 854.646 2867.75 815.111 2824.69 766.34Z"/><path fill="#40A572" d="M738.509 3196.18C735.051 3194.36 721.926 3179.07 717.088 3173.44C680.827 3131.27 643.676 3088.89 611.018 3043.74C608.996 3040.94 614.895 3038.95 614.559 3038.15C613.506 3035.64 609.155 3028.14 607.696 3025.85C592.256 3002.56 575.474 2980.12 560.573 2956.48C545.836 2933.1 532.655 2908.82 518.901 2884.85C503.514 2858.04 488.605 2830.98 474.696 2803.36C329.403 2511.99 265.189 2186.89 288.789 1862.16C328.057 1382.47 554.458 937.474 919.084 623.313C1276.14 320.124 1739.17 171.485 2205.98 210.203C2452.47 229.431 2690.02 311.067 2896.26 447.429C2929.65 469.145 3005.75 523.522 3031.2 553.101C3032.23 558.718 3032.47 558.452 3035.74 563.262C2829.27 376.008 2542.8 252.901 2266.82 221.09C2163.56 209.187 2055.82 209.17 1952.17 214.263C1492.87 239.993 1062.55 446.911 755.655 789.599C451.041 1126.33 271.648 1599.55 290.102 2055.25C302.39 2358.68 382.668 2647.32 537.937 2908.02C571.888 2965.02 615.428 3034.02 655.874 3086.91C687.334 3128.04 738.465 3176.16 774.884 3214.13C791.488 3231.44 814.894 3250.08 831.656 3267.43C807.229 3259.94 755.231 3193.2 735.925 3181.44L733.305 3183.01L733.228 3185.91C736.255 3189.65 738.447 3191.18 738.509 3196.18Z"/><path fill="#40A572" d="M830.432 2786.52C692.954 2590.75 600.302 2306.63 577.542 2069.91C542.551 1672.17 667.323 1276.86 924.307 971.266C1144.71 704.513 1485.18 510.98 1831.08 483.291C1995.15 472.653 2191.11 475.971 2347.7 534.617C2497.75 590.808 2707.73 658.945 2830.3 760.649C2825.42 763.834 2826.84 761.682 2824.69 766.34C2739.94 684.211 2623.34 651.649 2520.05 605.87C2315.91 515.398 2154.32 480.388 1930.94 483.78C1582.19 490.989 1250.5 636.055 1008.46 887.232C727.637 1172.37 571.952 1557.62 575.826 1957.8C580.72 2185.67 636.878 2409.5 740.13 2612.69C757.844 2647.56 775.826 2676.65 797.352 2709.27C801.167 2715.06 827.192 2753.54 828.866 2757.29L822.977 2762.21C822.867 2770.39 828.608 2770.46 830.432 2786.52Z"/><path fill="#40A572" d="M1883.78 2256.03C1844.66 2196.45 1827.57 2142.35 1841.76 2070.1C1854.9 2003.21 1897.96 1938.42 1955.43 1901.3C1988.89 1879.52 2026.6 1865.12 2066.06 1859.05C2109.26 1852.25 2202.84 1855.09 2250.49 1855.16L2635.16 1855.18L2746.94 1854.62C2761.99 1854.54 2798.95 1855.39 2812.23 1853.47C2854.67 1847.34 2897.48 1825.81 2940.89 1815.18L2943.86 1814.43L2945.65 1814C2917.96 1828.09 2883.99 1844.83 2859.31 1863.36C2770.27 1930.21 2693.69 2031.88 2659.65 2137.94C2633.03 2220.86 2626.76 2307.14 2604.97 2389.73C2583.64 2470.59 2544 2528.55 2532.95 2615.99C2524.1 2685.99 2526.83 2716.9 2537.41 2785.1C2471.79 2759.36 2349.03 2776.78 2288.2 2808.75C1977.76 2971.93 1530.59 2922.97 1275.31 2677.37L1277.59 2671.55C1347.84 2738 1429.61 2791.11 1518.89 2828.27C1700.1 2903.81 1935.27 2919.59 2125.05 2867.92C2237.39 2837.33 2316.86 2772.07 2437.44 2767.48C2471.06 2766.2 2487.87 2764.07 2522.42 2771.06C2515.34 2725.06 2522.08 2658.59 2528.34 2611.99C2539.06 2532.13 2577.51 2468.32 2598.23 2393.84C2616.11 2329.56 2625 2256.1 2640.09 2190.13C2672.26 2051.44 2754.56 1929.53 2871.18 1847.86C2828.5 1867.14 2751.09 1859.9 2700.82 1859.98L2287.06 1860.02C2231.27 1859.95 2108.68 1856.54 2060.22 1865.26C2017.77 1872.84 1977.71 1890.36 1943.31 1916.39C1842.81 1993.71 1804.84 2143.77 1886.61 2248.15L1883.78 2256.03Z"/><path fill="#40A572" d="M756.282 2860.47C740.037 2846.85 669.526 2719.88 656.867 2694.73C516.512 2415.88 454.694 2108.08 484.945 1796.84C529.047 1375.99 736.588 989.262 1062.92 719.867C1307.45 518.864 1611.17 403.619 1927.49 391.803C1966.26 390.508 2025.88 388.088 2064.04 391.821C2055.72 392.771 2053.72 393.316 2045.62 392.042C2044.93 392.441 2044.23 392.839 2043.54 393.238C2044.81 394.022 2046.08 394.806 2047.35 395.59C1949.38 394.988 1848.93 397.225 1751.78 413.199C1457.65 461.565 1181.7 603.637 969.317 811.29C663.596 1110.2 485.231 1514.96 482.187 1943.43C479.956 2257.59 576.37 2597.17 765.308 2851.01C759.166 2854.13 757.215 2853.27 756.282 2860.47Z"/><path fill="#40A572" d="M1845.88 2329.64C1675.5 2137.97 1747.18 1856.28 1995.17 1785.22C2066.63 1764.75 2172.07 1773.52 2247.88 1773.19L2659.04 1773.27L2778.29 1772.95C2792.09 1772.88 2829.7 1773.61 2841.17 1771.67C2863.06 1768.3 2887.25 1756.08 2908.81 1752.99C2951.49 1746.88 2985.02 1743.71 3027.19 1732.14C3098.76 1712.51 3170.65 1734.12 3232.83 1772.38L3230.6 1780.7C3223.34 1775.25 3215.85 1770.13 3208.14 1765.34C3141.99 1724.78 3074.34 1725.28 3001.17 1742.55C3037.58 1748.82 3072.67 1756.13 3102.98 1778.95L3105.72 1785.71C3044.8 1747.57 2978.55 1739.5 2910.49 1758.84C2847.7 1776.68 2838.42 1779.19 2774.29 1779.11C2738.05 1778.94 2701.81 1778.94 2665.56 1779.13L2219.21 1778.71C2149.56 1778.69 2058.03 1772.73 1993.02 1791.2C1913.66 1813.27 1845.6 1864.57 1802.52 1934.79C1759.09 2006.76 1746.17 2093.09 1766.61 2174.62C1781.25 2232.57 1811.15 2285.54 1853.21 2328.01L1845.88 2329.64Z"/><path fill="#0AA558" d="M2682.97 3447.42C2706.57 3473.08 2729.9 3487.09 2762.96 3497.87C2774.43 3501.61 2786.38 3504.73 2797 3510.59C2810.13 3517.85 2818.81 3531.31 2830.6 3540.38C2837.94 3546.03 2847.89 3550.17 2856.18 3554.4C2859.07 3581.5 2864.95 3607.63 2871.95 3633.93C2816.28 3612.39 2762.63 3563.85 2727.51 3516.22C2711.66 3494.73 2697.88 3470.74 2679.95 3450.97L2682.97 3447.42Z"/><path fill="#40A572" d="M917.855 738.923C942.778 712.413 1001.29 664.182 1030.52 640.811C1364.4 378.55 1788.84 259.766 2210.34 310.622L2203.24 315.097C2138.81 309.31 2075.04 304.348 2010.27 304.941C1644.59 305.727 1290.47 433.168 1008.14 665.588C978.91 689.894 950.396 715.053 922.638 741.031L917.855 738.923Z"/><path fill="#40A572" d="M2616.45 3367.49L2624.45 3366.75C2641.63 3395.97 2660.7 3421.94 2682.97 3447.42L2679.95 3450.97C2667.28 3437.08 2657.36 3426.21 2646.47 3410.73C2637.28 3397.65 2627.04 3378.35 2616.45 3367.49Z"/><path fill="#40A572" d="M2432.99 944.019C2436.33 950.59 2439.77 957.104 2442.66 963.886L2438.83 966.164L2429.78 945.895L2432.99 944.019Z"/><path fill="#0AA558" d="M810.394 3181.85C1025.48 3359.92 1343.87 3484.44 1617.07 3530.71C1718.87 3547.19 1821.75 3556.09 1924.86 3557.33C1986.98 3558.4 2048.71 3558.73 2110.61 3552.83C2191.94 3544.46 2272.4 3529.13 2351.11 3507.02C2387.48 3496.81 2423.76 3486.3 2459.95 3475.48C2512.97 3459.72 2539.53 3447.47 2595.21 3447.18C2602.53 3459.23 2609.67 3475.47 2616.79 3486.44C2624.99 3499.06 2640.96 3517.59 2650.85 3529.62C2592.94 3531.67 2494.13 3569.62 2433.8 3587.64L2431.39 3587.73C2246.47 3644.61 2092.18 3649.85 1901.05 3644.82C1595.03 3636.77 1237.91 3542.3 989.915 3357.74C921.245 3306.63 862.588 3246.11 803.885 3184.23L810.394 3181.85Z"/><path fill="#40A572" d="M2431.39 3587.73C2423.64 3572.85 2415.41 3558.06 2409.35 3542.4L2410.87 3542.36C2421.93 3555.69 2428.37 3571.36 2433.8 3587.64L2431.39 3587.73Z"/><path fill="#74B098" d="M803.885 3184.23L782.669 3160.49C792.413 3167.05 801.248 3174.48 810.394 3181.85L803.885 3184.23Z"/></svg>